<svg width="25" height="26" viewBox="0 0 25 26" fill="none" xmlns="http://www.w3.org/2000/svg">
<g clip-path="url(#clip0_550_3069)">
<path d="M7.45906 10.8796V10.1123C7.45888 9.96265 7.48821 9.81448 7.54538 9.67623C7.60255 9.53798 7.68643 9.41236 7.79221 9.30657C7.89799 9.20078 8.02361 9.1169 8.16186 9.05972C8.30011 9.00255 8.44828 8.97321 8.59788 8.97338H12.0023C12.2056 8.97364 12.4052 9.02802 12.5805 9.13093C12.7558 9.23385 12.9005 9.38159 12.9998 9.55898C13.0991 9.38159 13.2439 9.23385 13.4192 9.13093C13.5945 9.02802 13.794 8.97364 13.9973 8.97338H17.4018C17.5514 8.97321 17.6995 9.00255 17.8378 9.05973C17.976 9.1169 18.1016 9.20078 18.2074 9.30657C18.3132 9.41236 18.3971 9.53798 18.4543 9.67623C18.5114 9.81448 18.5408 9.96265 18.5406 10.1123C18.5579 10.4791 18.5416 10.8468 18.4921 11.2107L20.8627 11.2107V6.65937C20.8618 6.1241 20.6488 5.61102 20.2703 5.23253C19.8918 4.85404 19.3787 4.64102 18.8435 4.64014H7.15619C6.62093 4.64102 6.10784 4.85404 5.72935 5.23253C5.35087 5.61102 5.13784 6.1241 5.13696 6.65937V11.2107H7.50754C7.47478 11.1034 7.45844 10.9918 7.45906 10.8796Z" fill="#C67C4E"/>
<path d="M2.49976 17.293H23.4998V19.5141H2.49976V17.293Z" fill="#C67C4E"/>
<path d="M21.8844 12.0186H4.11514C3.68689 12.0191 3.27633 12.1895 2.97351 12.4923C2.67069 12.7951 2.50032 13.2057 2.49976 13.6339V16.4851H23.4998V13.6339C23.4992 13.2057 23.3288 12.7951 23.026 12.4923C22.7232 12.1895 22.3126 12.0191 21.8844 12.0186Z" fill="#C67C4E"/>
<path d="M8.59773 9.78125C8.51003 9.78165 8.42603 9.81667 8.36402 9.87869C8.30201 9.94071 8.267 10.0247 8.2666 10.1124V10.8797C8.26646 10.9232 8.27492 10.9664 8.29151 11.0066C8.3081 11.0469 8.33249 11.0834 8.36326 11.1142C8.39404 11.145 8.4306 11.1694 8.47084 11.186C8.51108 11.2026 8.5542 11.211 8.59773 11.2109H12.0022C12.0457 11.211 12.0888 11.2026 12.1291 11.186C12.1693 11.1694 12.2059 11.145 12.2366 11.1142C12.2674 11.0834 12.2918 11.0469 12.3084 11.0066C12.325 10.9664 12.3334 10.9232 12.3333 10.8797V10.1124C12.3329 10.0247 12.2979 9.94072 12.2359 9.8787C12.1739 9.81668 12.0899 9.78166 12.0022 9.78126L8.59773 9.78125Z" fill="#C67C4E"/>
<path d="M13.9971 9.78125C13.9094 9.78165 13.8254 9.81667 13.7634 9.87869C13.7014 9.94071 13.6664 10.0247 13.666 10.1124V10.8797C13.6659 10.9232 13.6743 10.9664 13.6909 11.0066C13.7075 11.0469 13.7319 11.0834 13.7627 11.1142C13.7935 11.145 13.83 11.1694 13.8703 11.186C13.9105 11.2026 13.9536 11.211 13.9971 11.2109H17.4016C17.4451 11.211 17.4882 11.2026 17.5285 11.186C17.5687 11.1694 17.6053 11.145 17.6361 11.1142C17.6668 11.0834 17.6912 11.0469 17.7078 11.0066C17.7244 10.9664 17.7329 10.9232 17.7327 10.8797V10.1124C17.7323 10.0247 17.6973 9.94072 17.6353 9.8787C17.5733 9.81668 17.4893 9.78166 17.4016 9.78126L13.9971 9.78125Z" fill="#C67C4E"/>
<path d="M3.61035 21.0083C3.61035 21.1295 3.90515 21.3597 4.39381 21.3597C4.87843 21.3597 5.17324 21.1295 5.17324 21.0083V20.3218H3.61035V21.0083Z" fill="#C67C4E"/>
<path d="M20.8262 21.0083C20.9274 21.4653 22.2927 21.4647 22.3931 21.0083V20.3218H20.8343L20.8262 21.0083Z" fill="#C67C4E"/>
</g>
<defs>
<clipPath id="clip0_550_3069">
<rect width="24" height="25" fill="white" transform="matrix(1 0 0 -1 0.659912 25.5)"/>
</clipPath>
</defs>
</svg>
