<svg width="24" height="26" viewBox="0 0 24 26" fill="none" xmlns="http://www.w3.org/2000/svg">
<path d="M9.00012 16.9141C9.00012 16.5234 8.85949 16.1836 8.57824 15.8945C8.29699 15.6055 7.96105 15.4609 7.57043 15.4609H5.32043C5.22668 14.8516 5.1134 14.2422 4.98058 13.6328C4.84777 13.0234 4.6798 12.4141 4.47668 11.8047C4.4298 11.6797 4.34777 11.5859 4.23058 11.5234C4.1134 11.4609 3.98449 11.4531 3.84387 11.5C3.71887 11.5312 3.62512 11.6094 3.56262 11.7344C3.50012 11.8594 3.4923 11.9844 3.53918 12.1094C3.85168 13.0938 4.08996 14.0859 4.25402 15.0859C4.41808 16.0859 4.50012 17.0938 4.50012 18.1094V20.9688C4.50012 21.1094 4.54699 21.2266 4.64074 21.3203C4.73449 21.4141 4.85168 21.4609 4.9923 21.4609C5.13293 21.4609 5.25402 21.4141 5.35558 21.3203C5.45715 21.2266 5.50793 21.1094 5.50793 20.9688V18.9531H8.10949C8.15637 19.3125 8.21496 19.668 8.28527 20.0195C8.35558 20.3711 8.4298 20.7266 8.50793 21.0859C8.53918 21.2109 8.6134 21.3086 8.73058 21.3789C8.84777 21.4492 8.97668 21.4688 9.1173 21.4375C9.25793 21.4062 9.3634 21.332 9.43371 21.2148C9.50402 21.0977 9.51574 20.9688 9.46887 20.8281C9.31262 20.1875 9.19543 19.5391 9.1173 18.8828C9.03918 18.2266 9.00012 17.5625 9.00012 16.8906V16.9141ZM5.46105 17.4766C5.46105 17.3047 5.45715 17.1367 5.44933 16.9727C5.44152 16.8086 5.43762 16.6406 5.43762 16.4688H7.57043C7.6798 16.4688 7.77746 16.5117 7.8634 16.5977C7.94933 16.6836 7.9923 16.7891 7.9923 16.9141C7.9923 17.0078 7.99621 17.1016 8.00402 17.1953C8.01183 17.2891 8.01574 17.3828 8.01574 17.4766H5.46105ZM20.1564 11.5C20.0314 11.4531 19.9064 11.4609 19.7814 11.5234C19.6564 11.5859 19.5704 11.6797 19.5236 11.8047C19.3204 12.3984 19.1525 13.0039 19.0196 13.6211C18.8868 14.2383 18.7814 14.8516 18.7032 15.4609H16.4532C16.0626 15.4609 15.7228 15.6055 15.4337 15.8945C15.1446 16.1836 15.0001 16.5234 15.0001 16.9141C15.0001 17.5703 14.9611 18.2305 14.8829 18.8945C14.8048 19.5586 14.6798 20.2109 14.5079 20.8516C14.4767 20.9922 14.5001 21.1211 14.5782 21.2383C14.6564 21.3555 14.7579 21.4297 14.8829 21.4609C15.0236 21.4922 15.1525 21.4727 15.2696 21.4023C15.3868 21.332 15.4611 21.2344 15.4923 21.1094C15.5704 20.75 15.6446 20.3945 15.715 20.043C15.7853 19.6914 15.8439 19.3359 15.8907 18.9766H18.4923V20.9688C18.4923 21.1094 18.5431 21.2305 18.6446 21.332C18.7462 21.4336 18.8673 21.4844 19.0079 21.4844C19.1486 21.4844 19.2657 21.4336 19.3595 21.332C19.4532 21.2305 19.5001 21.1094 19.5001 20.9688V18.1328C19.5001 17.1172 19.5821 16.1055 19.7462 15.0977C19.9103 14.0898 20.1486 13.1016 20.4611 12.1328C20.5079 12.0078 20.5001 11.8828 20.4376 11.7578C20.3751 11.6328 20.2814 11.5469 20.1564 11.5ZM18.5392 17.4531H15.9845C15.9845 17.3594 15.9884 17.2656 15.9962 17.1719C16.004 17.0781 16.0079 16.9844 16.0079 16.8906C16.0079 16.7812 16.0509 16.6836 16.1368 16.5977C16.2228 16.5117 16.3282 16.4688 16.4532 16.4688H18.5861C18.5704 16.625 18.5587 16.7891 18.5509 16.9609C18.5431 17.1328 18.5392 17.2969 18.5392 17.4531ZM12.4923 17.3594V14.4766H16.0079C16.1486 14.4766 16.2657 14.4258 16.3595 14.3242C16.4532 14.2227 16.5001 14.1016 16.5001 13.9609C16.5001 13.8203 16.4532 13.7031 16.3595 13.6094C16.2657 13.5156 16.1486 13.4688 16.0079 13.4688H12.4923V8.47656H19.9923C20.2736 8.47656 20.4376 8.33594 20.4845 8.05469C20.5314 7.77344 20.4298 7.58594 20.1798 7.49219L12.5157 4.60938C12.3439 4.5625 12.172 4.53906 12.0001 4.53906C11.8282 4.53906 11.6642 4.5625 11.5079 4.60938L3.82043 7.49219C3.57043 7.58594 3.46887 7.77344 3.51574 8.05469C3.56262 8.33594 3.72668 8.47656 4.00793 8.47656H11.5079V13.4688H8.01574C7.87512 13.4688 7.75402 13.5156 7.65246 13.6094C7.5509 13.7031 7.50012 13.8203 7.50012 13.9609C7.50012 14.1016 7.5509 14.2227 7.65246 14.3242C7.75402 14.4258 7.87512 14.4766 8.01574 14.4766H11.5079V17.3594C11.5079 17.9688 11.3907 18.5547 11.1564 19.1172C10.922 19.6797 10.5861 20.1797 10.1486 20.6172C10.0548 20.7266 10.0079 20.8477 10.0079 20.9805C10.0079 21.1133 10.0548 21.2266 10.1486 21.3203C10.2579 21.4297 10.379 21.4844 10.5118 21.4844C10.6446 21.4844 10.7657 21.4297 10.8751 21.3203C11.1095 21.0859 11.3243 20.8242 11.5196 20.5352C11.715 20.2461 11.8829 19.9531 12.0236 19.6562C12.1642 19.9688 12.3282 20.2656 12.5157 20.5469C12.7032 20.8281 12.922 21.0859 13.172 21.3203C13.2657 21.4297 13.3829 21.4844 13.5236 21.4844C13.6642 21.4844 13.7814 21.4297 13.8751 21.3203C13.9845 21.2266 14.0392 21.1133 14.0392 20.9805C14.0392 20.8477 13.9845 20.7266 13.8751 20.6172C13.4376 20.1797 13.1056 19.6797 12.879 19.1172C12.6525 18.5547 12.5392 17.9688 12.5392 17.3594H12.4923Z" fill="#C67C4E"/>
</svg>
