<svg width="24" height="26" viewBox="0 0 24 26" fill="none" xmlns="http://www.w3.org/2000/svg">
<g clip-path="url(#clip0_550_3046)">
<path d="M3.74627 12.385C3.38252 12.385 3.06602 12.1398 3.01427 11.7685C3.00152 11.683 2.99927 11.5848 2.99927 11.5C2.99927 10.303 3.46502 9.17275 4.31102 8.31775C5.17202 7.46575 6.30227 7 7.49927 7H12.3368C12.7515 7 13.0868 7.336 13.0868 7.75C13.0868 8.164 12.7515 8.5 12.3368 8.5H7.49927C6.70052 8.5 5.94452 8.812 5.37152 9.37825C4.81127 9.9445 4.49927 10.7005 4.49927 11.5C4.55627 11.9103 4.26977 12.3197 3.85952 12.3767C3.82052 12.382 3.78302 12.385 3.74627 12.385Z" fill="#C67C4E"/>
<path d="M17.2501 23.5H10.7251C10.3103 23.5 9.9751 23.164 9.9751 22.75C9.9751 22.336 10.3103 22 10.7251 22H17.2501C18.9046 22 20.2501 20.6545 20.2501 19C20.2501 18.2005 19.9381 17.4445 19.3718 16.8723C18.8048 16.312 18.0488 16 17.2501 16H11.2951C10.8803 16 10.5451 15.664 10.5451 15.25C10.5451 14.836 10.8803 14.5 11.2951 14.5H17.2501C18.4471 14.5 19.5773 14.9658 20.4323 15.8118C21.2843 16.6728 21.7501 17.803 21.7501 19C21.7501 21.4818 19.7318 23.5 17.2501 23.5Z" fill="#C67C4E"/>
<path d="M18.75 1C16.2682 1 14.25 3.01825 14.25 5.5C14.25 8.719 17.409 12.25 18.75 12.25C20.091 12.25 23.25 8.719 23.25 5.5C23.25 3.01825 21.2318 1 18.75 1ZM18.75 7C17.9212 7 17.25 6.32875 17.25 5.5C17.25 4.67125 17.9212 4 18.75 4C19.5788 4 20.25 4.67125 20.25 5.5C20.25 6.32875 19.5788 7 18.75 7Z" fill="#C67C4E"/>
<path d="M5.25 13.75C2.76825 13.75 0.75 15.7682 0.75 18.25C0.75 21.469 3.909 25 5.25 25C6.591 25 9.75 21.469 9.75 18.25C9.75 15.7682 7.73175 13.75 5.25 13.75ZM5.25 19.75C4.42125 19.75 3.75 19.0788 3.75 18.25C3.75 17.4212 4.42125 16.75 5.25 16.75C6.07875 16.75 6.75 17.4212 6.75 18.25C6.75 19.0788 6.07875 19.75 5.25 19.75Z" fill="#C67C4E"/>
</g>
<defs>
<clipPath id="clip0_550_3046">
<rect width="24" height="24" fill="white" transform="translate(0 1)"/>
</clipPath>
</defs>
</svg>
