<svg width="25" height="26" viewBox="0 0 25 26" fill="none" xmlns="http://www.w3.org/2000/svg">
<g clip-path="url(#clip0_550_3054)">
<path d="M22.3337 5.41748C22.3106 5.33645 22.2604 5.2658 22.1914 5.21734C22.1225 5.16888 22.039 5.14554 21.955 5.15123C12.9075 5.41608 6.67868 11.3231 5.78501 19.1463C5.78192 19.2159 5.79799 19.2851 5.83149 19.3461C5.86499 19.4072 5.91463 19.458 5.97498 19.4928C6.03533 19.5276 6.10409 19.5451 6.17374 19.5435C6.24339 19.5419 6.31127 19.5212 6.36996 19.4837L14.7699 13.84C12.9166 16.6831 10.4628 19.0857 7.5812 20.8787C6.29895 21.6621 4.93132 22.2962 3.50495 22.7687C3.41195 22.8012 3.33546 22.869 3.29197 22.9574C3.24848 23.0458 3.24149 23.1477 3.2725 23.2412C3.30351 23.3347 3.37003 23.4123 3.45772 23.4572C3.54541 23.5021 3.64723 23.5107 3.74122 23.4812C5.15718 23.0102 6.51768 22.3866 7.7987 21.6212C11.3349 23.4925 15.16 21.9737 15.325 21.9062C25.8099 17.5712 22.3712 5.53748 22.3337 5.41748Z" fill="#C67C4E"/>
<path d="M5.57121 16.3936C6.4891 13.1235 8.40595 10.222 11.0537 8.09482C10.6401 5.75895 9.02339 3.18307 6.83119 2.51857C6.76985 2.49867 6.70438 2.49513 6.64124 2.50828C6.57811 2.52143 6.51951 2.55083 6.47122 2.59357C3.88213 4.84498 0.831929 11.1244 5.57121 16.3936Z" fill="#C67C4E"/>
</g>
<defs>
<clipPath id="clip0_550_3054">
<rect width="24" height="25" fill="white" transform="matrix(1 0 0 -1 0.660156 25.5)"/>
</clipPath>
</defs>
</svg>
