<svg width="25" height="26" viewBox="0 0 25 26" fill="none" xmlns="http://www.w3.org/2000/svg">
<g clip-path="url(#clip0_550_3062)">
<g clip-path="url(#clip1_550_3062)">
<path d="M12.0025 16.5543C13.9653 16.5543 15.5565 14.9631 15.5565 13.0003C15.5565 11.0375 13.9653 9.44629 12.0025 9.44629C10.0397 9.44629 8.44849 11.0375 8.44849 13.0003C8.44849 14.9631 10.0397 16.5543 12.0025 16.5543Z" fill="#C67C4E"/>
<path d="M23.9973 7.75363C24.0425 8.93117 23.5721 10.0699 22.7089 10.8723C22.3812 11.1411 22.2028 11.551 22.2291 11.974C22.4824 16.4209 22.5623 20.6013 22.5623 20.6013C22.5898 21.281 22.0611 21.8542 21.3815 21.8816C20.7018 21.909 20.1286 21.3804 20.1012 20.7007C20.0999 20.6676 20.0999 20.6344 20.1012 20.6013C20.1012 20.6013 20.1278 19.3396 20.1945 17.4605C20.2434 15.9278 20.3233 13.982 20.4344 11.974C20.4604 11.552 20.2839 11.1429 19.959 10.8723C18.8069 9.93079 18.4366 8.07244 18.7995 6.6208C19.1461 5.1681 20.1501 4.11523 21.3318 4.11523C22.8022 4.11523 23.9973 5.74563 23.9973 7.75363Z" fill="#C67C4E"/>
<path d="M19.3904 11.5608C17.8438 10.2798 17.4224 7.82365 18.071 5.92326C14.6916 3.01298 9.72177 2.91231 6.22731 5.68337C6.22731 9.16817 6.3181 9.47153 5.85414 10.2947C5.59798 10.7497 5.22536 11.1284 4.77462 11.392C4.71142 11.4313 4.65062 11.4743 4.59247 11.5208C4.38184 12.1527 4.77251 14.2539 4.89456 19.0286C8.2121 22.9553 14.0847 23.4491 18.0114 20.1315C18.4665 19.747 18.8837 19.3196 19.2571 18.8553C19.306 17.2161 19.3993 14.6128 19.5503 11.9206C19.5583 11.7818 19.4987 11.6478 19.3904 11.5608ZM12.0025 17.4426C9.54902 17.4426 7.56006 15.4537 7.56006 13.0001C7.56006 10.5466 9.54902 8.55766 12.0025 8.55766C14.4561 8.55766 16.445 10.5466 16.445 13.0001C16.441 15.452 14.4544 17.4386 12.0025 17.4426Z" fill="#C67C4E"/>
<path d="M5.08112 9.85915C4.56135 10.7743 3.88165 10.5788 3.71283 11.3696C3.65413 11.6934 3.63026 12.0225 3.64175 12.3514C3.6995 13.2132 3.86388 15.6655 3.95717 17.709C4.00709 17.709 4.00426 20.4706 3.99715 20.5478C3.83722 22.2759 1.56711 22.4136 1.33166 20.5478C1.21171 19.6282 1.35831 16.5318 1.70483 12.3558C1.72881 12.0312 1.70488 11.7049 1.63375 11.3874C1.46493 10.6055 0.78523 10.7876 0.265459 9.88136C-0.0687277 9.28302 0.00779418 9.27369 0.00779418 4.93687C-0.0265241 4.56887 0.244024 4.24268 0.612084 4.20841C0.980089 4.1741 1.30628 4.44464 1.34054 4.8127C1.34437 4.85402 1.34437 4.89561 1.34054 4.93693V7.59798C1.33293 7.78201 1.47593 7.93733 1.65996 7.94494C1.84399 7.95254 1.99931 7.80955 2.00692 7.62552C2.0073 7.61636 2.0073 7.60714 2.00692 7.59798V4.93693C1.9726 4.56892 2.24314 4.24273 2.6112 4.20847C2.97926 4.17421 3.3054 4.4447 3.33966 4.81276C3.34349 4.85407 3.34349 4.89567 3.33966 4.93698V7.59803C3.33205 7.78206 3.47505 7.93738 3.65908 7.94499C3.84311 7.9526 3.99843 7.80961 4.00604 7.62558C4.00642 7.61641 4.00642 7.6072 4.00604 7.59803V4.93698C3.96955 4.57109 4.23655 4.2449 4.60244 4.20841C4.96833 4.17193 5.29452 4.43892 5.33101 4.80482C5.33317 4.82659 5.33428 4.84847 5.33428 4.87034V4.87479C5.33795 4.89528 5.33945 4.91616 5.33873 4.93698C5.33878 9.24936 5.41575 9.26541 5.08112 9.85915Z" fill="#C67C4E"/>
</g>
</g>
<defs>
<clipPath id="clip0_550_3062">
<rect width="24" height="25" fill="white" transform="matrix(1 0 0 -1 0.320068 25.5)"/>
</clipPath>
<clipPath id="clip1_550_3062">
<rect width="24" height="24" fill="white" transform="translate(0.000244141 1)"/>
</clipPath>
</defs>
</svg>
