<svg width="25" height="26" viewBox="0 0 25 26" fill="none" xmlns="http://www.w3.org/2000/svg">
<g clip-path="url(#clip0_550_3085)">
<g clip-path="url(#clip1_550_3085)">
<path d="M12.7061 21.4704C13.0959 21.4704 13.412 21.7865 13.412 22.1763C13.412 22.5662 13.0959 22.8822 12.7061 22.8822C12.7061 23.2721 12.39 23.5881 12.0002 23.5881C11.6104 23.5881 11.2943 23.2721 11.2943 22.8822C10.9045 22.8822 10.5884 22.5662 10.5884 22.1763C10.5884 21.7865 10.9045 21.4704 11.2943 21.4704V20.7329C7.56928 20.3972 4.60283 17.4308 4.26715 13.7057H0.70608C0.0542932 13.7057 -0.249269 12.8978 0.241251 12.4686L11.5354 2.58627C11.8015 2.3534 12.1989 2.3534 12.465 2.58627L23.7591 12.4686C24.2497 12.8978 23.9461 13.7057 23.2943 13.7057H19.7332C19.3976 17.4308 16.4311 20.3972 12.7061 20.7329V21.4704ZM12.0002 19.3528C15.2702 19.3528 17.9632 16.8822 18.3144 13.7057H5.68603C6.03717 16.8822 8.73016 19.3528 12.0002 19.3528Z" fill="#C67C4E"/>
</g>
</g>
<defs>
<clipPath id="clip0_550_3085">
<rect width="24" height="25" fill="white" transform="matrix(1 0 0 -1 0.320068 25.5)"/>
</clipPath>
<clipPath id="clip1_550_3085">
<rect width="24" height="24" fill="white" transform="translate(0.000244141 1)"/>
</clipPath>
</defs>
</svg>
