<svg width="75" height="75" viewBox="0 0 75 75" fill="none" xmlns="http://www.w3.org/2000/svg">
<rect width="75" height="75" rx="37.5" fill="white"/>
<g clip-path="url(#clip0_135_3090)">
<path d="M17.0933 40.9966C18.2614 40.9413 19.4374 40.9097 20.6054 40.9729C22.5154 41.0834 24.5358 39.6233 26.6826 39.5759C28.8293 39.5286 29.6817 40.452 31.8836 39.7969C32.2862 39.6785 33.8252 39.497 33.8094 38.8419C33.8094 38.5341 32.8781 38.3053 32.6019 38.179C32.1283 37.958 31.6706 37.7133 31.2207 37.445C30.3131 36.9004 29.4686 36.2532 28.7425 35.4877C28.3715 35.0931 28.0322 34.6748 27.7401 34.2249C27.5271 33.9013 27.3534 33.5935 27.0614 33.4435C26.9272 33.3725 26.7694 33.3409 26.5721 33.3488C25.8697 33.3725 25.0883 33.7119 24.4332 33.9566C19.2795 35.8902 16.7619 38.4868 16.3593 39.4418C16.2173 39.789 16.0436 40.2389 16.1384 40.6177C16.2725 41.1544 16.6592 41.0281 17.0933 41.0044V40.9966Z" fill="#4D3029"/>
<mask id="mask0_135_3090" style="mask-type:luminance" maskUnits="userSpaceOnUse" x="16" y="33" width="18" height="9">
<path d="M17.0924 40.9966C18.2604 40.9413 19.4364 40.9097 20.6045 40.9729C22.5144 41.0834 24.5349 39.6233 26.6816 39.5759C28.8283 39.5286 29.6807 40.452 31.8827 39.7969C32.2852 39.6785 33.8242 39.497 33.8084 38.8419C33.8084 38.5341 32.8771 38.3053 32.6009 38.179C32.1273 37.958 31.6696 37.7133 31.2197 37.445C30.3121 36.9004 29.4676 36.2532 28.7415 35.4877C28.3706 35.0931 28.0312 34.6748 27.7392 34.2249C27.5261 33.9013 27.3524 33.5935 27.0604 33.4435C26.9263 33.3725 26.7684 33.3409 26.5711 33.3488C25.8687 33.3725 25.0873 33.7119 24.4323 33.9566C19.2785 35.8902 16.7609 38.4868 16.3584 39.4418C16.2163 39.789 16.0427 40.2389 16.1374 40.6177C16.2715 41.1544 16.6583 41.0281 17.0924 41.0044V40.9966Z" fill="white"/>
</mask>
<g mask="url(#mask0_135_3090)">
<path d="M33.8323 33.333H16.0508V33.4277H33.8323V33.333Z" fill="#4D3029"/>
<path d="M33.8323 33.4277H16.0508V33.7276H33.8323V33.4277Z" fill="#4D3029"/>
<path d="M33.8323 33.7354H16.0508V34.0353H33.8323V33.7354Z" fill="#4D3029"/>
<path d="M33.8323 34.0356H16.0508V34.3356H33.8323V34.0356Z" fill="#4D3029"/>
<path d="M33.8323 34.3433H16.0508V34.6432H33.8323V34.3433Z" fill="#4D3029"/>
<path d="M33.8323 34.6431H16.0508V34.943H33.8323V34.6431Z" fill="#4D3029"/>
<path d="M33.8323 34.9507H16.0508V35.2506H33.8323V34.9507Z" fill="#4D3029"/>
<path d="M33.8323 35.251H16.0508V35.5509H33.8323V35.251Z" fill="#4D3029"/>
<path d="M33.8323 35.5586H16.0508V35.8585H33.8323V35.5586Z" fill="#4D3029"/>
<path d="M33.8323 35.8589H16.0508V36.1588H33.8323V35.8589Z" fill="#4D3029"/>
<path d="M33.8323 36.1665H16.0508V36.4664H33.8323V36.1665Z" fill="#4D3029"/>
<path d="M33.8323 36.4663H16.0508V36.7662H33.8323V36.4663Z" fill="#4D3029"/>
<path d="M33.8323 36.7739H16.0508V37.0738H33.8323V36.7739Z" fill="#4D3029"/>
<path d="M33.8323 37.0742H16.0508V37.3741H33.8323V37.0742Z" fill="#4D3029"/>
<path d="M33.8323 37.3818H16.0508V37.6817H33.8323V37.3818Z" fill="#4D3029"/>
<path d="M33.8323 37.6816H16.0508V37.9816H33.8323V37.6816Z" fill="#4D3029"/>
<path d="M33.8323 37.9893H16.0508V38.2892H33.8323V37.9893Z" fill="#4D3029"/>
<path d="M33.8323 38.2891H16.0508V38.589H33.8323V38.2891Z" fill="#4D3029"/>
<path d="M33.8323 38.5972H16.0508V38.8971H33.8323V38.5972Z" fill="#4D3029"/>
<path d="M33.8323 38.897H16.0508V39.1969H33.8323V38.897Z" fill="#4D3029"/>
<path d="M33.8323 39.1973H16.0508V39.4972H33.8323V39.1973Z" fill="#4D3029"/>
<path d="M33.8323 39.5049H16.0508V39.8048H33.8323V39.5049Z" fill="#4D3029"/>
<path d="M33.8323 39.8052H16.0508V40.1051H33.8323V39.8052Z" fill="#4D3029"/>
<path d="M33.8323 40.1123H16.0508V40.4122H33.8323V40.1123Z" fill="#4D3029"/>
<path d="M33.8323 40.4126H16.0508V40.7125H33.8323V40.4126Z" fill="#4D3029"/>
<path d="M33.8323 40.7202H16.0508V41.0201H33.8323V40.7202Z" fill="#4D3029"/>
<path d="M33.8323 41.0205H16.0508V41.131H33.8323V41.0205Z" fill="#4D3029"/>
</g>
<path d="M34.7808 41.786C34.8361 41.194 35.4833 40.026 34.4967 40.1049C33.7154 40.1601 33.0919 41.0125 32.3579 41.2572C31.2529 41.6202 30.0849 40.9336 28.9247 40.8783C27.5198 40.8152 26.2571 41.6676 24.9233 42.1253C23.5579 42.5989 22.082 42.6383 20.6614 42.4568C19.4538 42.299 18.1042 41.7939 16.8809 42.0622C16.4389 42.1569 15.9812 42.4016 15.7207 42.7725C15.4998 43.0882 15.6418 43.3171 15.7207 43.6565C15.8076 44.0669 15.9102 44.4615 16.0838 44.8482C16.7152 46.2846 17.9306 47.429 19.1224 48.4077C22.3819 51.0674 27.8513 50.9885 31.1661 49.9309C32.2395 49.5915 33.2734 49.1338 34.2678 48.6208C34.7256 48.384 35.2623 48.163 35.6016 47.7605C36.0515 47.2159 35.7989 46.9318 35.5069 46.4425C34.7414 45.1718 34.6467 43.2224 34.7808 41.786Z" fill="#4D3029"/>
<mask id="mask1_135_3090" style="mask-type:luminance" maskUnits="userSpaceOnUse" x="15" y="40" width="21" height="11">
<path d="M34.7808 41.786C34.8361 41.194 35.4833 40.026 34.4967 40.1049C33.7154 40.1601 33.0919 41.0125 32.3579 41.2572C31.2529 41.6202 30.0849 40.9336 28.9247 40.8783C27.5198 40.8152 26.2571 41.6676 24.9233 42.1253C23.5579 42.5989 22.082 42.6383 20.6614 42.4568C19.4538 42.299 18.1042 41.7939 16.8809 42.0622C16.4389 42.1569 15.9812 42.4016 15.7207 42.7725C15.4998 43.0882 15.6418 43.3171 15.7207 43.6565C15.8076 44.0669 15.9102 44.4615 16.0838 44.8482C16.7152 46.2846 17.9306 47.429 19.1224 48.4077C22.3819 51.0674 27.8513 50.9885 31.1661 49.9309C32.2395 49.5915 33.2734 49.1338 34.2678 48.6208C34.7256 48.384 35.2623 48.163 35.6016 47.7605C36.0515 47.2159 35.7989 46.9318 35.5069 46.4425C34.7414 45.1718 34.6467 43.2224 34.7808 41.786Z" fill="white"/>
</mask>
<g mask="url(#mask1_135_3090)">
<path d="M36.0518 40.0259H15.5V40.2232H36.0518V40.0259Z" fill="#4D3029"/>
<path d="M36.0518 40.2231H15.5V40.6414H36.0518V40.2231Z" fill="#4D3029"/>
<path d="M36.0518 40.6411H15.5V41.0594H36.0518V40.6411Z" fill="#4D3029"/>
<path d="M36.0518 41.0518H15.5V41.4701H36.0518V41.0518Z" fill="#4D3029"/>
<path d="M36.0518 41.4702H15.5V41.8885H36.0518V41.4702Z" fill="#4D3029"/>
<path d="M36.0518 41.8882H15.5V42.3065H36.0518V41.8882Z" fill="#4D3029"/>
<path d="M36.0518 42.2988H15.5V42.7171H36.0518V42.2988Z" fill="#4D3029"/>
<path d="M36.0518 42.7173H15.5V43.1356H36.0518V42.7173Z" fill="#4D3029"/>
<path d="M36.0518 43.1353H15.5V43.5536H36.0518V43.1353Z" fill="#4D3029"/>
<path d="M36.0518 43.5459H15.5V43.9642H36.0518V43.5459Z" fill="#4D3029"/>
<path d="M36.0518 43.9644H15.5V44.3827H36.0518V43.9644Z" fill="#4D3029"/>
<path d="M36.0518 44.3823H15.5V44.8006H36.0518V44.3823Z" fill="#4D3029"/>
<path d="M36.0518 44.793H15.5V45.2113H36.0518V44.793Z" fill="#4D3029"/>
<path d="M36.0518 45.2109H15.5V45.6292H36.0518V45.2109Z" fill="#4D3029"/>
<path d="M36.0518 45.6294H15.5V46.0477H36.0518V45.6294Z" fill="#4D3029"/>
<path d="M36.0518 46.04H15.5V46.4583H36.0518V46.04Z" fill="#4D3029"/>
<path d="M36.0518 46.458H15.5V46.8763H36.0518V46.458Z" fill="#4D3029"/>
<path d="M36.0518 46.8765H15.5V47.2948H36.0518V46.8765Z" fill="#4D3029"/>
<path d="M36.0518 47.2871H15.5V47.7054H36.0518V47.2871Z" fill="#4D3029"/>
<path d="M36.0518 47.7051H15.5V48.1234H36.0518V47.7051Z" fill="#4D3029"/>
<path d="M36.0518 48.123H15.5V48.5413H36.0518V48.123Z" fill="#4D3029"/>
<path d="M36.0518 48.5337H15.5V48.952H36.0518V48.5337Z" fill="#4D3029"/>
<path d="M36.0518 48.9521H15.5V49.3704H36.0518V48.9521Z" fill="#4D3029"/>
<path d="M36.0518 49.3701H15.5V49.7884H36.0518V49.3701Z" fill="#4D3029"/>
<path d="M36.0518 49.7808H15.5V50.1991H36.0518V49.7808Z" fill="#4D3029"/>
<path d="M36.0518 50.1992H15.5V50.6175H36.0518V50.1992Z" fill="#4D3029"/>
<path d="M36.0518 50.6172H15.5V51.0355H36.0518V50.6172Z" fill="#4D3029"/>
</g>
<path d="M38.4908 38.4631C41.9555 38.8498 45.4124 38.0763 45.4124 38.0763C45.4124 38.0763 47.9458 37.5554 48.964 36.119C49.8874 34.8326 50.6608 32.0702 48.2852 31.9361C47.7248 31.9045 47.1645 31.9992 46.612 31.9203C45.515 31.7545 44.6547 30.9179 43.6445 30.4602C42.4212 29.9077 41.04 29.9156 39.7062 29.7657C37.8041 29.5526 35.9494 28.9764 34.2605 28.0925C32.7057 27.2796 31.0561 26.3956 29.383 25.8195C25.1526 24.3594 27.3546 30.6259 28.1202 32.1492C30.0144 35.9059 35.0339 38.0684 38.4908 38.4631Z" fill="#4D3029"/>
<mask id="mask2_135_3090" style="mask-type:luminance" maskUnits="userSpaceOnUse" x="26" y="25" width="24" height="14">
<path d="M38.4908 38.4631C41.9555 38.8498 45.4124 38.0763 45.4124 38.0763C45.4124 38.0763 47.9458 37.5554 48.964 36.119C49.8874 34.8326 50.6608 32.0702 48.2852 31.9361C47.7248 31.9045 47.1645 31.9992 46.612 31.9203C45.515 31.7545 44.6547 30.9179 43.6445 30.4602C42.4212 29.9077 41.04 29.9156 39.7062 29.7657C37.8041 29.5526 35.9494 28.9764 34.2605 28.0925C32.7057 27.2796 31.0561 26.3956 29.383 25.8195C25.1526 24.3594 27.3546 30.6259 28.1202 32.1492C30.0144 35.9059 35.0339 38.0684 38.4908 38.4631Z" fill="white"/>
</mask>
<g mask="url(#mask2_135_3090)">
<path d="M50.6616 25.2515H25.1455V25.7645H50.6616V25.2515Z" fill="#4D3029"/>
<path d="M50.6616 25.7642H25.1455V26.2772H50.6616V25.7642Z" fill="#4D3029"/>
<path d="M50.6616 26.2769H25.1455V26.7899H50.6616V26.2769Z" fill="#4D3029"/>
<path d="M50.6616 26.79H25.1455V27.303H50.6616V26.79Z" fill="#4D3029"/>
<path d="M50.6616 27.3032H25.1455V27.8162H50.6616V27.3032Z" fill="#4D3029"/>
<path d="M50.6616 27.8164H25.1455V28.3294H50.6616V27.8164Z" fill="#4D3029"/>
<path d="M50.6616 28.3291H25.1455V28.8421H50.6616V28.3291Z" fill="#4D3029"/>
<path d="M50.6616 28.8423H25.1455V29.3553H50.6616V28.8423Z" fill="#4D3029"/>
<path d="M50.6616 29.3472H25.1455V29.8602H50.6616V29.3472Z" fill="#4D3029"/>
<path d="M50.6616 29.8604H25.1455V30.3734H50.6616V29.8604Z" fill="#4D3029"/>
<path d="M50.6616 30.373H25.1455V30.8861H50.6616V30.373Z" fill="#4D3029"/>
<path d="M50.6616 30.8862H25.1455V31.3992H50.6616V30.8862Z" fill="#4D3029"/>
<path d="M50.6616 31.3994H25.1455V31.9124H50.6616V31.3994Z" fill="#4D3029"/>
<path d="M50.6616 31.9121H25.1455V32.4251H50.6616V31.9121Z" fill="#4D3029"/>
<path d="M50.6616 32.4253H25.1455V32.9383H50.6616V32.4253Z" fill="#4D3029"/>
<path d="M50.6616 32.938H25.1455V33.451H50.6616V32.938Z" fill="#4D3029"/>
<path d="M50.6616 33.4512H25.1455V33.9642H50.6616V33.4512Z" fill="#4D3029"/>
<path d="M50.6616 33.9644H25.1455V34.4774H50.6616V33.9644Z" fill="#4D3029"/>
<path d="M50.6616 34.4775H25.1455V34.9905H50.6616V34.4775Z" fill="#4D3029"/>
<path d="M50.6616 34.9902H25.1455V35.5032H50.6616V34.9902Z" fill="#4D3029"/>
<path d="M50.6616 35.5034H25.1455V36.0164H50.6616V35.5034Z" fill="#4D3029"/>
<path d="M50.6616 36.0161H25.1455V36.5291H50.6616V36.0161Z" fill="#4D3029"/>
<path d="M50.6616 36.5293H25.1455V37.0423H50.6616V36.5293Z" fill="#4D3029"/>
<path d="M50.6616 37.0425H25.1455V37.5555H50.6616V37.0425Z" fill="#4D3029"/>
<path d="M50.6616 37.5552H25.1455V38.0682H50.6616V37.5552Z" fill="#4D3029"/>
<path d="M50.6616 38.0684H25.1455V38.5814H50.6616V38.0684Z" fill="#4D3029"/>
</g>
<path d="M30.1328 24.9357C31.6007 25.4014 33.7632 25.5198 34.3867 25.5908C36.1704 25.7881 37.9067 26.3722 39.4379 27.2956C40.6533 28.0217 41.7977 28.9845 43.1867 29.2529C44.7652 29.5607 46.612 28.9845 47.8985 29.9553C48.2221 30.2 48.4746 30.5157 48.7824 30.784C49.0902 31.0523 49.4849 31.2496 49.8795 31.1865C51.3869 30.9497 49.99 28.0848 49.6348 27.3903C48.1826 24.5332 44.3785 21.4789 38.8854 21.1395C33.4002 20.8001 30.038 22.1418 29.2804 22.8443C28.1439 23.9097 28.8858 24.549 30.1406 24.9436L30.1328 24.9357Z" fill="#4D3029"/>
<mask id="mask3_135_3090" style="mask-type:luminance" maskUnits="userSpaceOnUse" x="28" y="21" width="23" height="11">
<path d="M30.1337 24.9357C31.6017 25.4014 33.7642 25.5198 34.3877 25.5908C36.1714 25.7881 37.9077 26.3722 39.4388 27.2956C40.6543 28.0217 41.7987 28.9845 43.1877 29.2529C44.7662 29.5607 46.613 28.9845 47.8995 29.9553C48.2231 30.2 48.4756 30.5157 48.7834 30.784C49.0912 31.0523 49.4858 31.2496 49.8805 31.1865C51.3879 30.9497 49.991 28.0848 49.6358 27.3903C48.1836 24.5332 44.3795 21.4789 38.8864 21.1395C33.4012 20.8001 30.039 22.1418 29.2814 22.8443C28.1449 23.9097 28.8867 24.549 30.1416 24.9436L30.1337 24.9357Z" fill="white"/>
</mask>
<g mask="url(#mask3_135_3090)">
<path d="M51.3877 20.792H28.1367V21.1945H51.3877V20.792Z" fill="#4D3029"/>
<path d="M51.3877 21.1943H28.1367V21.5968H51.3877V21.1943Z" fill="#4D3029"/>
<path d="M51.3877 21.5972H28.1367V21.9997H51.3877V21.5972Z" fill="#4D3029"/>
<path d="M51.3877 21.9995H28.1367V22.402H51.3877V21.9995Z" fill="#4D3029"/>
<path d="M51.3877 22.394H28.1367V22.7966H51.3877V22.394Z" fill="#4D3029"/>
<path d="M51.3877 22.7969H28.1367V23.1994H51.3877V22.7969Z" fill="#4D3029"/>
<path d="M51.3877 23.1992H28.1367V23.6017H51.3877V23.1992Z" fill="#4D3029"/>
<path d="M51.3877 23.5938H28.1367V23.9963H51.3877V23.5938Z" fill="#4D3029"/>
<path d="M51.3877 23.9966H28.1367V24.3991H51.3877V23.9966Z" fill="#4D3029"/>
<path d="M51.3877 24.3984H28.1367V24.8009H51.3877V24.3984Z" fill="#4D3029"/>
<path d="M51.3877 24.7935H28.1367V25.196H51.3877V24.7935Z" fill="#4D3029"/>
<path d="M51.3877 25.1958H28.1367V25.5983H51.3877V25.1958Z" fill="#4D3029"/>
<path d="M51.3877 25.5981H28.1367V26.0007H51.3877V25.5981Z" fill="#4D3029"/>
<path d="M51.3877 25.9932H28.1367V26.3957H51.3877V25.9932Z" fill="#4D3029"/>
<path d="M51.3877 26.3955H28.1367V26.798H51.3877V26.3955Z" fill="#4D3029"/>
<path d="M51.3877 26.7979H28.1367V27.2004H51.3877V26.7979Z" fill="#4D3029"/>
<path d="M51.3877 27.1924H28.1367V27.5949H51.3877V27.1924Z" fill="#4D3029"/>
<path d="M51.3877 27.5952H28.1367V27.9977H51.3877V27.5952Z" fill="#4D3029"/>
<path d="M51.3877 27.9976H28.1367V28.4001H51.3877V27.9976Z" fill="#4D3029"/>
<path d="M51.3877 28.3921H28.1367V28.7946H51.3877V28.3921Z" fill="#4D3029"/>
<path d="M51.3877 28.7949H28.1367V29.1974H51.3877V28.7949Z" fill="#4D3029"/>
<path d="M51.3877 29.1973H28.1367V29.5998H51.3877V29.1973Z" fill="#4D3029"/>
<path d="M51.3877 29.5918H28.1367V29.9943H51.3877V29.5918Z" fill="#4D3029"/>
<path d="M51.3877 29.9946H28.1367V30.3971H51.3877V29.9946Z" fill="#4D3029"/>
<path d="M51.3877 30.397H28.1367V30.7995H51.3877V30.397Z" fill="#4D3029"/>
<path d="M51.3877 30.7915H28.1367V31.194H51.3877V30.7915Z" fill="#4D3029"/>
<path d="M51.3877 31.1943H28.1367V31.2417H51.3877V31.1943Z" fill="#4D3029"/>
</g>
<path d="M58.9952 44.5481C58.7426 43.2143 58.3007 41.9121 57.6298 40.7282C56.7932 39.2523 55.5383 38.029 54.1177 37.1214C53.8178 36.932 53.3048 36.5137 52.9496 36.5137C52.6182 36.5137 52.1841 36.8609 51.9315 37.0582C51.3317 37.5239 50.8582 38.1316 50.2189 38.5499C49.1929 39.2286 48.0485 39.718 46.8646 40.0258C46.2648 40.1836 45.6413 40.2862 45.0257 40.3809C44.4022 40.4756 43.7708 40.5467 43.1394 40.5861C42.7369 40.6098 41.5215 40.3967 41.4504 40.9413C41.3242 41.8963 43.5656 41.7147 44.1023 41.699C45.1993 41.6595 46.3358 41.5648 47.4013 41.92C49.3349 42.5671 49.8321 43.8141 51.9868 43.8457C54.1414 43.8773 56.0434 43.6642 56.9353 44.2324C57.3615 44.5008 57.7087 44.8875 58.0481 45.2584C58.2533 45.4873 58.6637 46.2529 59.0741 45.9135C59.3425 45.6925 59.0741 44.848 59.011 44.5323L58.9952 44.5481Z" fill="#4D3029"/>
<mask id="mask4_135_3090" style="mask-type:luminance" maskUnits="userSpaceOnUse" x="41" y="36" width="19" height="10">
<path d="M58.9962 44.5481C58.7436 43.2143 58.3016 41.9121 57.6308 40.7282C56.7942 39.2523 55.5393 38.029 54.1187 37.1214C53.8188 36.932 53.3058 36.5137 52.9506 36.5137C52.6191 36.5137 52.1851 36.8609 51.9325 37.0582C51.3327 37.5239 50.8591 38.1316 50.2199 38.5499C49.1938 39.2286 48.0494 39.718 46.8656 40.0258C46.2658 40.1836 45.6423 40.2862 45.0267 40.3809C44.4032 40.4756 43.7718 40.5467 43.1404 40.5861C42.7379 40.6098 41.5225 40.3967 41.4514 40.9413C41.3251 41.8963 43.5666 41.7147 44.1033 41.699C45.2003 41.6595 46.3368 41.5648 47.4023 41.92C49.3359 42.5671 49.8331 43.8141 51.9877 43.8457C54.1424 43.8773 56.0444 43.6642 56.9363 44.2324C57.3625 44.5008 57.7097 44.8875 58.0491 45.2584C58.2543 45.4873 58.6647 46.2529 59.0751 45.9135C59.3434 45.6925 59.0751 44.848 59.012 44.5323L58.9962 44.5481Z" fill="white"/>
</mask>
<g mask="url(#mask4_135_3090)">
<path d="M59.3199 36.5137H41.3174V36.6321H59.3199V36.5137Z" fill="#4D3029"/>
<path d="M59.3199 36.6318H41.3174V37.0107H59.3199V36.6318Z" fill="#4D3029"/>
<path d="M59.3199 37.0029H41.3174V37.3818H59.3199V37.0029Z" fill="#4D3029"/>
<path d="M59.3199 37.3818H41.3174V37.7607H59.3199V37.3818Z" fill="#4D3029"/>
<path d="M59.3199 37.7607H41.3174V38.1396H59.3199V37.7607Z" fill="#4D3029"/>
<path d="M59.3199 38.1313H41.3174V38.5102H59.3199V38.1313Z" fill="#4D3029"/>
<path d="M59.3199 38.5103H41.3174V38.8891H59.3199V38.5103Z" fill="#4D3029"/>
<path d="M59.3199 38.8813H41.3174V39.2602H59.3199V38.8813Z" fill="#4D3029"/>
<path d="M59.3199 39.2603H41.3174V39.6391H59.3199V39.2603Z" fill="#4D3029"/>
<path d="M59.3199 39.6313H41.3174V40.0102H59.3199V39.6313Z" fill="#4D3029"/>
<path d="M59.3199 40.0103H41.3174V40.3891H59.3199V40.0103Z" fill="#4D3029"/>
<path d="M59.3199 40.3809H41.3174V40.7597H59.3199V40.3809Z" fill="#4D3029"/>
<path d="M59.3199 40.7598H41.3174V41.1386H59.3199V40.7598Z" fill="#4D3029"/>
<path d="M59.3199 41.1387H41.3174V41.5175H59.3199V41.1387Z" fill="#4D3029"/>
<path d="M59.3199 41.5098H41.3174V41.8886H59.3199V41.5098Z" fill="#4D3029"/>
<path d="M59.3199 41.8882H41.3174V42.267H59.3199V41.8882Z" fill="#4D3029"/>
<path d="M59.3199 42.2593H41.3174V42.6381H59.3199V42.2593Z" fill="#4D3029"/>
<path d="M59.3199 42.6382H41.3174V43.017H59.3199V42.6382Z" fill="#4D3029"/>
<path d="M59.3199 43.0093H41.3174V43.3881H59.3199V43.0093Z" fill="#4D3029"/>
<path d="M59.3199 43.3877H41.3174V43.7665H59.3199V43.3877Z" fill="#4D3029"/>
<path d="M59.3199 43.7588H41.3174V44.1376H59.3199V43.7588Z" fill="#4D3029"/>
<path d="M59.3199 44.1377H41.3174V44.5165H59.3199V44.1377Z" fill="#4D3029"/>
<path d="M59.3199 44.5166H41.3174V44.8954H59.3199V44.5166Z" fill="#4D3029"/>
<path d="M59.3199 44.8872H41.3174V45.266H59.3199V44.8872Z" fill="#4D3029"/>
<path d="M59.3199 45.2661H41.3174V45.6449H59.3199V45.2661Z" fill="#4D3029"/>
<path d="M59.3199 45.6372H41.3174V46.016H59.3199V45.6372Z" fill="#4D3029"/>
</g>
<path d="M56.8408 45.7795C56.1936 45.8584 55.5859 46.1268 54.9387 46.1741C54.5757 46.1978 54.2284 46.1583 53.889 46.0636C52.792 45.7716 51.7818 45.0139 50.7084 44.572C49.3509 44.0116 47.8593 43.9564 46.4071 43.7354C44.2603 43.4039 42.1925 42.7015 40.1642 41.9438C39.3355 41.636 36.6521 40.1759 36.5021 42.0306C36.4074 43.1513 35.9812 44.8245 38.1516 48.6602C40.322 52.4959 45.2232 54.2086 48.4828 54.1928C51.7423 54.177 54.8756 52.8905 54.8756 52.8905C54.8756 52.8905 57.1723 51.9987 57.9615 50.3176C58.6166 48.9286 59.5005 45.4638 56.8408 45.7795Z" fill="#4D3029"/>
<mask id="mask5_135_3090" style="mask-type:luminance" maskUnits="userSpaceOnUse" x="36" y="41" width="23" height="14">
<path d="M56.8418 45.7795C56.1946 45.8584 55.5869 46.1268 54.9397 46.1741C54.5767 46.1978 54.2294 46.1583 53.89 46.0636C52.793 45.7716 51.7828 45.0139 50.7094 44.572C49.3519 44.0116 47.8602 43.9564 46.408 43.7354C44.2613 43.4039 42.1935 42.7015 40.1652 41.9438C39.3365 41.636 36.6531 40.1759 36.5031 42.0306C36.4084 43.1513 35.9822 44.8245 38.1526 48.6602C40.323 52.4959 45.2242 54.2086 48.4837 54.1928C51.7433 54.177 54.8766 52.8905 54.8766 52.8905C54.8766 52.8905 57.1732 51.9987 57.9625 50.3176C58.6176 48.9286 59.5015 45.4638 56.8418 45.7795Z" fill="white"/>
</mask>
<g mask="url(#mask5_135_3090)">
<path d="M59.5017 40.7441H35.9824V41.265H59.5017V40.7441Z" fill="#4D3029"/>
<path d="M59.5017 41.2646H35.9824V41.7855H59.5017V41.2646Z" fill="#4D3029"/>
<path d="M59.5017 41.7778H35.9824V42.2987H59.5017V41.7778Z" fill="#4D3029"/>
<path d="M59.5017 42.2988H35.9824V42.8197H59.5017V42.2988Z" fill="#4D3029"/>
<path d="M59.5017 42.8115H35.9824V43.3324H59.5017V42.8115Z" fill="#4D3029"/>
<path d="M59.5017 43.3325H35.9824V43.8534H59.5017V43.3325Z" fill="#4D3029"/>
<path d="M59.5017 43.8457H35.9824V44.3666H59.5017V43.8457Z" fill="#4D3029"/>
<path d="M59.5017 44.3667H35.9824V44.8876H59.5017V44.3667Z" fill="#4D3029"/>
<path d="M59.5017 44.8877H35.9824V45.4086H59.5017V44.8877Z" fill="#4D3029"/>
<path d="M59.5017 45.4004H35.9824V45.9213H59.5017V45.4004Z" fill="#4D3029"/>
<path d="M59.5017 45.9214H35.9824V46.4423H59.5017V45.9214Z" fill="#4D3029"/>
<path d="M59.5017 46.4346H35.9824V46.9555H59.5017V46.4346Z" fill="#4D3029"/>
<path d="M59.5017 46.9551H35.9824V47.476H59.5017V46.9551Z" fill="#4D3029"/>
<path d="M59.5017 47.4688H35.9824V47.9896H59.5017V47.4688Z" fill="#4D3029"/>
<path d="M59.5017 47.9893H35.9824V48.5102H59.5017V47.9893Z" fill="#4D3029"/>
<path d="M59.5017 48.502H35.9824V49.0228H59.5017V48.502Z" fill="#4D3029"/>
<path d="M59.5017 49.0229H35.9824V49.5438H59.5017V49.0229Z" fill="#4D3029"/>
<path d="M59.5017 49.5439H35.9824V50.0648H59.5017V49.5439Z" fill="#4D3029"/>
<path d="M59.5017 50.0571H35.9824V50.578H59.5017V50.0571Z" fill="#4D3029"/>
<path d="M59.5017 50.5781H35.9824V51.099H59.5017V50.5781Z" fill="#4D3029"/>
<path d="M59.5017 51.0908H35.9824V51.6117H59.5017V51.0908Z" fill="#4D3029"/>
<path d="M59.5017 51.6118H35.9824V52.1327H59.5017V51.6118Z" fill="#4D3029"/>
<path d="M59.5017 52.125H35.9824V52.6459H59.5017V52.125Z" fill="#4D3029"/>
<path d="M59.5017 52.6455H35.9824V53.1664H59.5017V52.6455Z" fill="#4D3029"/>
<path d="M59.5017 53.1587H35.9824V53.6796H59.5017V53.1587Z" fill="#4D3029"/>
<path d="M59.5017 53.6797H35.9824V54.2006H59.5017V53.6797Z" fill="#4D3029"/>
<path d="M59.5017 54.1924H35.9824V54.2082H59.5017V54.1924Z" fill="#4D3029"/>
</g>
</g>
<rect width="1" height="133" transform="matrix(-1 0 0 1 105 0)" fill="#E2C1A5"/>
<defs>
<clipPath id="clip0_135_3090">
<rect width="44" height="33.4163" fill="white" transform="translate(15.5 20.792)"/>
</clipPath>
</defs>
</svg>
