<svg width="30" height="30" viewBox="0 0 30 30" fill="none" xmlns="http://www.w3.org/2000/svg">
<g clip-path="url(#clip0_711_1457)">
<path d="M27.3212 1.88749C23.4517 -1.41303 16.6337 -0.317742 11.6761 4.64182C11.3989 4.91901 11.1517 5.21672 10.895 5.50797C13.4608 6.07056 15.9874 7.38678 18.2345 9.26852" fill="#C67C4E"/>
<path d="M19.6331 10.5128C22.1051 13.0123 23.7909 16.0332 24.4624 19.1292C24.7635 18.8655 25.07 18.6094 25.3559 18.324C30.0575 13.6206 31.2862 7.26683 28.5979 3.31055" fill="#C67C4E"/>
<path d="M1.88727 9.61841C-1.41273 13.4885 -0.317022 20.4002 4.64118 25.3597C7.72731 28.4463 11.5728 29.9999 14.9713 29.9999C16.7455 29.9999 18.3873 29.5364 19.7449 28.6169" fill="#C67C4E"/>
<path d="M21.1769 27.3411C24.481 23.4722 23.2804 16.6391 18.321 11.6777C13.6189 6.97545 7.26558 5.65278 3.30933 8.34148" fill="#C67C4E"/>
</g>
<defs>
<clipPath id="clip0_711_1457">
<rect width="30" height="30" fill="white"/>
</clipPath>
</defs>
</svg>
