<svg width="28" height="29" viewBox="0 0 28 29" fill="none" xmlns="http://www.w3.org/2000/svg">
<path d="M18.9587 3.41675C18.9587 2.9335 19.3504 2.54175 19.8337 2.54175C20.3169 2.54175 20.7087 2.9335 20.7087 3.41675V5.25921C22.3879 5.39368 23.4903 5.72369 24.3002 6.53358C25.1101 7.34348 25.4401 8.44586 25.5745 10.1251L2.42613 10.1251C2.56059 8.44586 2.8906 7.34348 3.70049 6.53358C4.51039 5.72369 5.61278 5.39368 7.29199 5.25921V3.41675C7.29199 2.9335 7.68374 2.54175 8.16699 2.54175C8.65024 2.54175 9.04199 2.9335 9.04199 3.41675V5.1818C9.81814 5.16675 10.6881 5.16675 11.667 5.16675H16.3337C17.3125 5.16675 18.1825 5.16675 18.9587 5.1818V3.41675Z" fill="#C67C4E"/>
<path fill-rule="evenodd" clip-rule="evenodd" d="M25.667 14.5001C25.667 13.5212 25.667 12.6512 25.6519 11.8751L2.34871 11.8751C2.33366 12.6512 2.33366 13.5212 2.33366 14.5001V16.8334C2.33366 21.2332 2.33366 23.4331 3.70049 24.7999C5.06733 26.1667 7.26722 26.1667 11.667 26.1667H16.3337C20.7334 26.1667 22.9333 26.1667 24.3002 24.7999C25.667 23.4331 25.667 21.2332 25.667 16.8334V14.5001ZM8.16699 16.8334C7.52266 16.8334 7.00033 16.3111 7.00033 15.6667C7.00033 15.0224 7.52266 14.5001 8.16699 14.5001C8.81133 14.5001 9.33366 15.0224 9.33366 15.6667C9.33366 16.3111 8.81133 16.8334 8.16699 16.8334ZM8.16699 21.5001C7.52266 21.5001 7.00033 20.9777 7.00033 20.3334C7.00033 19.6891 7.52266 19.1667 8.16699 19.1667C8.81133 19.1667 9.33366 19.6891 9.33366 20.3334C9.33366 20.9777 8.81133 21.5001 8.16699 21.5001ZM12.8337 15.6667C12.8337 16.3111 13.356 16.8334 14.0003 16.8334C14.6447 16.8334 15.167 16.3111 15.167 15.6667C15.167 15.0224 14.6447 14.5001 14.0003 14.5001C13.356 14.5001 12.8337 15.0224 12.8337 15.6667ZM12.8337 20.3334C12.8337 20.9777 13.356 21.5001 14.0003 21.5001C14.6447 21.5001 15.167 20.9777 15.167 20.3334C15.167 19.6891 14.6447 19.1667 14.0003 19.1667C13.356 19.1667 12.8337 19.6891 12.8337 20.3334ZM19.8337 16.8334C19.1893 16.8334 18.667 16.3111 18.667 15.6667C18.667 15.0224 19.1893 14.5001 19.8337 14.5001C20.478 14.5001 21.0003 15.0224 21.0003 15.6667C21.0003 16.3111 20.478 16.8334 19.8337 16.8334ZM19.8337 21.5001C19.1893 21.5001 18.667 20.9777 18.667 20.3334C18.667 19.6891 19.1893 19.1667 19.8337 19.1667C20.478 19.1667 21.0003 19.6891 21.0003 20.3334C21.0003 20.9777 20.478 21.5001 19.8337 21.5001Z" fill="#C67C4E"/>
</svg>
