<svg width="22" height="22" viewBox="0 0 22 22" fill="none" xmlns="http://www.w3.org/2000/svg">
<path d="M1.83325 4.81913C1.83325 3.17007 3.26967 1.83325 5.04159 1.83325C6.8135 1.83325 8.24992 3.17007 8.24992 4.81913C8.24992 6.45526 7.22593 8.36447 5.62828 9.04722C5.25584 9.20638 4.82733 9.20638 4.45489 9.04722C2.85724 8.36447 1.83325 6.45526 1.83325 4.81913Z" stroke="#667085" stroke-width="1.5"/>
<path d="M13.75 15.8191C13.75 14.1701 15.1864 12.8333 16.9583 12.8333C18.7302 12.8333 20.1667 14.1701 20.1667 15.8191C20.1667 17.4553 19.1427 19.3645 17.545 20.0472C17.1726 20.2064 16.7441 20.2064 16.3716 20.0472C14.774 19.3645 13.75 17.4553 13.75 15.8191Z" stroke="#667085" stroke-width="1.5"/>
<path d="M17.3751 16.0417C17.3751 16.2718 17.1885 16.4583 16.9584 16.4583C16.7283 16.4583 16.5417 16.2718 16.5417 16.0417C16.5417 15.8115 16.7283 15.625 16.9584 15.625C17.1885 15.625 17.3751 15.8115 17.3751 16.0417Z" fill="#667085" stroke="#667085"/>
<path d="M5.95833 5.04167C5.95833 5.54793 5.54793 5.95833 5.04167 5.95833C4.53541 5.95833 4.125 5.54793 4.125 5.04167C4.125 4.53541 4.53541 4.125 5.04167 4.125C5.54793 4.125 5.95833 4.53541 5.95833 5.04167Z" fill="#667085"/>
<path d="M10.9999 3.83325C10.5857 3.83325 10.2499 4.16904 10.2499 4.58325C10.2499 4.99747 10.5857 5.33325 10.9999 5.33325V3.83325ZM10.9999 17.4166L11.5302 17.9469C11.8231 17.654 11.8231 17.1791 11.5302 16.8863L10.9999 17.4166ZM15.7717 7.9633L16.1744 8.59604L15.7717 7.9633ZM6.22809 14.0365L6.63074 14.6693H6.63075L6.22809 14.0365ZM10.1552 15.5113C9.86235 15.2184 9.38748 15.2184 9.09458 15.5113C8.80169 15.8041 8.80169 16.279 9.09458 16.5719L10.1552 15.5113ZM9.09458 18.2613C8.80169 18.5541 8.80169 19.029 9.09458 19.3219C9.38748 19.6148 9.86235 19.6148 10.1552 19.3219L9.09458 18.2613ZM14.7875 3.83325H10.9999V5.33325H14.7875V3.83325ZM10.9999 16.6666H7.21235V18.1666H10.9999V16.6666ZM15.3691 7.33055L5.82543 13.4038L6.63075 14.6693L16.1744 8.59604L15.3691 7.33055ZM11.5302 16.8863L10.1552 15.5113L9.09458 16.5719L10.4696 17.9469L11.5302 16.8863ZM10.4696 16.8863L9.09458 18.2613L10.1552 19.3219L11.5302 17.9469L10.4696 16.8863ZM7.21235 16.6666C6.12854 16.6666 5.71636 15.2512 6.63074 14.6693L5.82543 13.4038C3.64501 14.7913 4.62786 18.1666 7.21235 18.1666V16.6666ZM14.7875 5.33325C15.8713 5.33325 16.2835 6.74868 15.3691 7.33055L16.1744 8.59604C18.3548 7.2085 17.372 3.83325 14.7875 3.83325V5.33325Z" fill="#667085"/>
</svg>
