<svg width="22" height="22" viewBox="0 0 22 22" fill="none" xmlns="http://www.w3.org/2000/svg">
<path d="M1.83325 10.9998C1.83325 7.54287 1.83325 5.81439 2.90719 4.74045C3.98114 3.6665 5.70962 3.6665 9.16658 3.6665H12.8333C16.2902 3.6665 18.0187 3.6665 19.0926 4.74045C20.1666 5.81439 20.1666 7.54287 20.1666 10.9998V12.8332C20.1666 16.2901 20.1666 18.0186 19.0926 19.0926C18.0187 20.1665 16.2902 20.1665 12.8333 20.1665H9.16658C5.70962 20.1665 3.98114 20.1665 2.90719 19.0926C1.83325 18.0186 1.83325 16.2901 1.83325 12.8332V10.9998Z" stroke="#667085" stroke-width="1.5"/>
<path d="M6.41675 3.6665V2.2915" stroke="#667085" stroke-width="1.5" stroke-linecap="round"/>
<path d="M15.5833 3.6665V2.2915" stroke="#667085" stroke-width="1.5" stroke-linecap="round"/>
<path d="M2.29175 8.25H19.7084" stroke="#667085" stroke-width="1.5" stroke-linecap="round"/>
<path d="M16.0001 15.5833C16.0001 15.8135 15.8135 16 15.5834 16C15.3533 16 15.1667 15.8135 15.1667 15.5833C15.1667 15.3532 15.3533 15.1667 15.5834 15.1667C15.8135 15.1667 16.0001 15.3532 16.0001 15.5833ZM16.0001 11.9167C16.0001 12.1468 15.8135 12.3333 15.5834 12.3333C15.3533 12.3333 15.1667 12.1468 15.1667 11.9167C15.1667 11.6865 15.3533 11.5 15.5834 11.5C15.8135 11.5 16.0001 11.6865 16.0001 11.9167Z" fill="#667085" stroke="#667085"/>
<path d="M11.9166 15.5833C11.9166 16.0896 11.5062 16.5 10.9999 16.5C10.4937 16.5 10.0833 16.0896 10.0833 15.5833C10.0833 15.0771 10.4937 14.6667 10.9999 14.6667C11.5062 14.6667 11.9166 15.0771 11.9166 15.5833Z" fill="#667085"/>
<path d="M11.9166 11.9167C11.9166 12.4229 11.5062 12.8333 10.9999 12.8333C10.4937 12.8333 10.0833 12.4229 10.0833 11.9167C10.0833 11.4104 10.4937 11 10.9999 11C11.5062 11 11.9166 11.4104 11.9166 11.9167Z" fill="#667085"/>
<path d="M7.33333 15.5833C7.33333 16.0896 6.92293 16.5 6.41667 16.5C5.91041 16.5 5.5 16.0896 5.5 15.5833C5.5 15.0771 5.91041 14.6667 6.41667 14.6667C6.92293 14.6667 7.33333 15.0771 7.33333 15.5833Z" fill="#667085"/>
<path d="M7.33333 11.9167C7.33333 12.4229 6.92293 12.8333 6.41667 12.8333C5.91041 12.8333 5.5 12.4229 5.5 11.9167C5.5 11.4104 5.91041 11 6.41667 11C6.92293 11 7.33333 11.4104 7.33333 11.9167Z" fill="#667085"/>
</svg>
