<svg width="22" height="22" viewBox="0 0 22 22" fill="none" xmlns="http://www.w3.org/2000/svg">
<path d="M1.83325 11.0001C1.83325 7.54311 1.83325 5.81463 2.90719 4.74069C3.98114 3.66675 5.70962 3.66675 9.16658 3.66675H12.8333C16.2902 3.66675 18.0187 3.66675 19.0926 4.74069C20.1666 5.81463 20.1666 7.54311 20.1666 11.0001C20.1666 14.457 20.1666 16.1855 19.0926 17.2595C18.0187 18.3334 16.2902 18.3334 12.8333 18.3334H9.16658C5.70962 18.3334 3.98114 18.3334 2.90719 17.2595C1.83325 16.1855 1.83325 14.457 1.83325 11.0001Z" stroke="#667085" stroke-width="1.5"/>
<path d="M5.5 7.33325L7.47899 8.98241C9.16257 10.3854 10.0044 11.0869 11 11.0869C11.9956 11.0869 12.8374 10.3854 14.521 8.98241L16.5 7.33325" stroke="#667085" stroke-width="1.5" stroke-linecap="round"/>
</svg>
