<svg width="22" height="22" viewBox="0 0 22 22" fill="none" xmlns="http://www.w3.org/2000/svg">
<path d="M12.375 1.8335C12.375 1.8335 14.514 2.02795 17.2364 4.75031C19.9587 7.47267 20.1532 9.61167 20.1532 9.61167" stroke="#667085" stroke-width="1.5" stroke-linecap="round"/>
<path d="M13.0232 5.07422C13.0232 5.07422 13.9306 5.33349 15.2918 6.69467C16.653 8.05585 16.9123 8.96331 16.9123 8.96331" stroke="#667085" stroke-width="1.5" stroke-linecap="round"/>
<path d="M13.8423 13.7749L13.2985 13.2584H13.2985L13.8423 13.7749ZM14.2598 13.3354L14.8036 13.8519L14.2598 13.3354ZM16.4751 13.028L16.1009 13.678H16.1009L16.4751 13.028ZM18.2264 14.036L17.8522 14.686L18.2264 14.036ZM18.7199 17.1952L19.2637 17.7117L18.7199 17.1952ZM17.4177 18.5662L16.8739 18.0497V18.0497L17.4177 18.5662ZM16.2033 19.2162L16.2769 19.9625L16.2033 19.2162ZM7.16408 15.1023L7.70787 14.5857L7.16408 15.1023ZM2.75265 6.38544L2.00372 6.42564L2.00372 6.42564L2.75265 6.38544ZM8.68773 7.79452L9.23152 8.31104V8.31104L8.68773 7.79452ZM8.83139 5.21868L9.44378 4.78569V4.78569L8.83139 5.21868ZM7.67548 3.58381L7.06309 4.0168L7.06309 4.0168L7.67548 3.58381ZM4.823 3.30792L5.36679 3.82444L5.36679 3.82444L4.823 3.30792ZM3.3842 4.82271L2.8404 4.30619H2.8404L3.3842 4.82271ZM10.1412 11.9679L10.685 11.4514L10.1412 11.9679ZM14.3861 14.2915L14.8036 13.8519L13.716 12.8189L13.2985 13.2584L14.3861 14.2915ZM16.1009 13.678L17.8522 14.686L18.6005 13.386L16.8492 12.3779L16.1009 13.678ZM18.1761 16.6787L16.8739 18.0497L17.9615 19.0827L19.2637 17.7117L18.1761 16.6787ZM16.1296 18.4698C14.8304 18.598 11.4182 18.492 7.70787 14.5857L6.62029 15.6188C10.6958 19.9095 14.5888 20.1292 16.2769 19.9625L16.1296 18.4698ZM7.70787 14.5857C4.16547 10.8563 3.5751 7.7151 3.50157 6.34524L2.00372 6.42564C2.09547 8.1349 2.82084 11.6187 6.62029 15.6188L7.70787 14.5857ZM8.96861 8.58783L9.23152 8.31104L8.14393 7.278L7.88102 7.5548L8.96861 8.58783ZM9.44378 4.78569L8.28788 3.15083L7.06309 4.0168L8.219 5.65166L9.44378 4.78569ZM4.2792 2.79141L2.8404 4.30619L3.92799 5.33922L5.36679 3.82444L4.2792 2.79141ZM8.42481 8.07132C7.88102 7.5548 7.88033 7.55553 7.87963 7.55627C7.87939 7.55652 7.87869 7.55726 7.87822 7.55776C7.87727 7.55877 7.87631 7.5598 7.87533 7.56086C7.87337 7.56296 7.87135 7.56516 7.86928 7.56744C7.86512 7.57201 7.86074 7.57693 7.85614 7.58222C7.84695 7.59278 7.83691 7.60481 7.82622 7.61831C7.80484 7.64533 7.78082 7.67832 7.75573 7.71754C7.70539 7.7962 7.65122 7.89914 7.60548 8.02769C7.51239 8.2893 7.46273 8.63292 7.52514 9.05891C7.64763 9.89487 8.19318 11.006 9.5974 12.4844L10.685 11.4514C9.38046 10.078 9.06781 9.24084 9.0093 8.84146C8.98121 8.64978 9.01035 8.55397 9.01867 8.53056C9.02364 8.5166 9.02584 8.51564 9.0192 8.52602C9.01595 8.5311 9.0106 8.53886 9.00244 8.54918C8.99835 8.55434 8.99356 8.56015 8.98796 8.56659C8.98515 8.56981 8.98215 8.57319 8.97893 8.57673C8.97732 8.5785 8.97565 8.58031 8.97393 8.58216C8.97307 8.58309 8.9722 8.58402 8.97131 8.58497C8.97087 8.58544 8.97019 8.58616 8.96997 8.58639C8.96929 8.58711 8.96861 8.58783 8.42481 8.07132ZM9.5974 12.4844C10.9971 13.9581 12.0631 14.5473 12.8873 14.6812C13.3109 14.7499 13.6564 14.6953 13.9201 14.5913C14.0489 14.5405 14.1511 14.4807 14.2283 14.426C14.2668 14.3987 14.299 14.3727 14.3251 14.3498C14.3382 14.3383 14.3498 14.3276 14.3599 14.3178C14.365 14.3129 14.3697 14.3083 14.3741 14.3039C14.3763 14.3017 14.3784 14.2995 14.3804 14.2974C14.3814 14.2964 14.3823 14.2954 14.3833 14.2944C14.3838 14.2939 14.3845 14.2932 14.3847 14.2929C14.3854 14.2922 14.3861 14.2915 13.8423 13.7749C13.2985 13.2584 13.2992 13.2577 13.2999 13.257C13.3001 13.2567 13.3008 13.256 13.3013 13.2556C13.3022 13.2546 13.303 13.2537 13.3039 13.2528C13.3057 13.251 13.3074 13.2492 13.3091 13.2475C13.3125 13.2441 13.3158 13.2409 13.3189 13.2379C13.3251 13.2319 13.3308 13.2267 13.3359 13.2222C13.3462 13.2131 13.3544 13.2068 13.3605 13.2025C13.3728 13.1938 13.3763 13.1933 13.3698 13.1959C13.3627 13.1987 13.2908 13.227 13.1278 13.2006C12.7786 13.1438 11.994 12.8295 10.685 11.4514L9.5974 12.4844ZM8.28788 3.15083C7.33787 1.80718 5.43251 1.57719 4.2792 2.79141L5.36679 3.82444C5.81675 3.35072 6.61432 3.38207 7.06309 4.0168L8.28788 3.15083ZM3.50157 6.34524C3.48307 6.00065 3.63273 5.65007 3.92799 5.33922L2.8404 4.30619C2.34069 4.8323 1.95762 5.56668 2.00372 6.42564L3.50157 6.34524ZM16.8739 18.0497C16.625 18.3117 16.3704 18.446 16.1296 18.4698L16.2769 19.9625C16.981 19.893 17.5482 19.5178 17.9615 19.0827L16.8739 18.0497ZM9.23152 8.31104C10.1402 7.35435 10.2031 5.8597 9.44378 4.78569L8.219 5.65166C8.58977 6.17607 8.53059 6.87093 8.14393 7.278L9.23152 8.31104ZM17.8522 14.686C18.5709 15.0996 18.709 16.1177 18.1761 16.6787L19.2637 17.7117C20.4887 16.422 20.1312 14.267 18.6005 13.386L17.8522 14.686ZM14.8036 13.8519C15.1366 13.5013 15.6554 13.4215 16.1009 13.678L16.8492 12.3779C15.8179 11.7843 14.5373 11.9542 13.716 12.8189L14.8036 13.8519Z" fill="#667085"/>
</svg>
