<svg width="60" height="61" viewBox="0 0 60 61" fill="none" xmlns="http://www.w3.org/2000/svg">
<rect y="0.179688" width="60" height="60" rx="30" fill="#C67C4E"/>
<path d="M21.7116 35.5363C22.6168 35.9818 26.7744 38.0461 27.0905 38.7263C27.3108 39.1957 26.693 40.6518 26.875 41.3032C20.8111 42.3282 15.2453 36.7002 14 31.0339C17.8318 30.5981 22.6599 31.1872 26.099 32.969C29.2076 34.5831 28.6185 34.5352 27.5886 37.6151C25.6727 36.6571 24.1256 35.8668 22.0564 35.1962L21.7116 35.0238C21.6589 35.0094 21.5918 35.0382 21.5391 35.0238L21.1943 34.8514C21.0937 34.8274 20.95 34.8753 20.8494 34.8514C20.1501 34.7077 20.0351 34.7652 20.5045 35.0238C20.5476 35.0477 20.6291 34.9999 20.677 35.0238L20.8494 35.1962C20.8973 35.2202 20.9739 35.1723 21.0218 35.1962L21.1943 35.3687C21.2422 35.3926 21.3188 35.3447 21.3667 35.3687L21.7116 35.5411V35.5363Z" fill="white"/>
<path d="M19.293 19.6241C24.1402 15.3564 31.3776 20.5198 33.5522 25.3431C35.3148 29.2563 34.3808 27.8865 32.0865 30.0898C31.277 30.8657 30.616 31.7183 29.9263 32.5948C27.1099 27.8002 24.9737 21.722 19.293 19.6241Z" fill="white"/>
<path d="M28.6285 33.1126C27.273 32.4037 25.9798 31.5895 24.5141 31.0913C23.2065 30.6507 18.091 30.0376 17.818 29.8316C16.6109 28.9455 16.3188 22.0387 17.9904 20.8125C23.8196 22.2303 25.8936 28.5288 28.6333 33.1078L28.6285 33.1126Z" fill="white"/>
<path d="M42.4423 19.6533C43.7212 21.9285 43.5727 24.6826 42.6148 27.0391L35.3774 27.93C34.4625 27.1397 37.0347 23.533 37.6286 22.8337C38.7973 21.4543 40.5695 19.8832 42.4423 19.6533Z" fill="white"/>
<path d="M41.2543 18.7624C38.3182 19.6964 36.1005 22.4409 34.8552 25.1615L31.4209 20.7166C33.0973 17.9385 38.8068 15.8167 41.2591 18.7624H41.2543Z" fill="white"/>
<path d="M21.7101 35.5357L21.3652 35.3633C21.485 35.4208 21.5951 35.4782 21.7101 35.5357Z" fill="white"/>
<path d="M22.0558 35.191C21.8738 35.1335 21.7301 35.0233 21.7109 35.0186L22.0558 35.191Z" fill="white"/>
<path d="M21.5382 35.0181C21.3275 34.9607 21.2125 34.8505 21.1934 34.8457L21.5382 35.0181Z" fill="white"/>
<path d="M20.8443 35.191L20.6719 35.0186C20.7677 35.0665 20.8156 35.1766 20.8443 35.191Z" fill="white"/>
<path d="M21.1939 35.3638L21.0215 35.1914C21.1029 35.2297 21.1508 35.3447 21.1939 35.3638Z" fill="white"/>
<path d="M36.4121 34.1568C36.4696 34.1089 36.5223 34.0131 36.5845 33.9844C36.5319 34.0371 36.4744 34.1329 36.4121 34.1568Z" fill="white"/>
<path d="M27.9375 40.8962C30.1695 38.0607 32.9955 35.5077 36.4106 34.1522L36.5831 33.9798C36.631 33.9559 36.7172 34.0037 36.7555 33.9798C37.8667 33.314 38.6762 33.1416 39.8689 32.768C40.2281 32.6578 40.4532 32.5333 40.9083 32.4231C41.1142 32.3752 41.7704 31.9681 41.9429 32.0783V32.4231C41.6698 32.4614 41.3298 32.4902 41.0807 32.6003C40.7981 32.7249 40.4963 32.8159 40.2137 32.9452C39.0019 33.5008 37.7135 34.1474 36.5831 34.8467C33.6996 36.6238 31.1275 38.9995 29.1445 41.7632C38.0488 43.2528 45.4729 38.1134 45.9998 28.9553C36.8753 25.5163 28.9625 31.7478 27.9375 40.901V40.8962Z" fill="white"/>
</svg>
