<svg width="30" height="30" viewBox="0 0 30 30" fill="none" xmlns="http://www.w3.org/2000/svg">
<path d="M14.0625 2.60327C13.7582 2.67109 13.4594 2.77233 13.1713 2.90697C8.19166 5.23452 5 11.7432 5 17.3209C5 22.6209 8.97926 26.9748 14.0625 27.4559V2.60327Z" fill="#C67C4E"/>
<path d="M15.9375 27.4559C21.0207 26.9748 25 22.6209 25 17.3209C25 16.8134 24.9736 16.2982 24.9218 15.7791L15.9375 24.7634V27.4559Z" fill="#C67C4E"/>
<path d="M22.8246 8.97459C22.3384 8.06857 21.7778 7.21023 21.15 6.42589L15.9375 11.6384V15.8617L22.8246 8.97459Z" fill="#C67C4E"/>
<path d="M19.8856 5.03865C18.9665 4.1571 17.9423 3.42749 16.8287 2.90697C16.5406 2.77233 16.2418 2.67109 15.9375 2.60327V8.9867L19.8856 5.03865Z" fill="#C67C4E"/>
<path d="M23.6705 10.7803L15.9375 18.5134V22.1117L24.375 13.6742L24.5399 13.5093C24.3225 12.5872 24.0308 11.6705 23.6705 10.7803Z" fill="#C67C4E"/>
</svg>
