<svg width="28" height="29" viewBox="0 0 28 29" fill="none" xmlns="http://www.w3.org/2000/svg">
<ellipse cx="4.66667" cy="4.66667" rx="4.66667" ry="4.66667" transform="matrix(-1 0 0 1 22.166 2.83325)" fill="#C67C4E"/>
<ellipse cx="8.16667" cy="4.66667" rx="8.16667" ry="4.66667" transform="matrix(-1 0 0 1 25.666 15.6677)" fill="#C67C4E"/>
<path d="M3.50035 20.334C3.50035 22.267 5.87516 23.8339 8.77466 23.8339C7.92042 22.9002 7.33303 21.7282 7.33303 20.3356C7.33303 18.9414 7.92178 17.7683 8.77763 16.834C5.87813 16.834 3.50035 18.401 3.50035 20.334Z" fill="#C67C4E"/>
<path d="M7.00035 7.50098C7.00035 9.43397 8.56735 11.001 10.5004 11.001C10.9219 11.001 11.326 10.9265 11.7002 10.7899C11.1483 9.81913 10.833 8.69621 10.833 7.49967C10.833 6.30402 11.1478 5.18188 11.699 4.2116C11.3251 4.07532 10.9214 4.00098 10.5004 4.00098C8.56735 4.00098 7.00035 5.56798 7.00035 7.50098Z" fill="#C67C4E"/>
</svg>
