<svg width="60" height="41" viewBox="0 0 40 41" fill="none" xmlns="http://www.w3.org/2000/svg">
<path d="M36.9381 3.97875C36.928 3.96859 36.917 3.95922 36.9076 3.94906C36.9069 3.94828 36.9053 3.94671 36.9045 3.94593C31.7436 -1.16797 22.2983 0.37386 15.5678 7.10617C14.5631 8.11113 13.6569 9.19424 12.8631 10.3328C8.84515 9.73736 5.30843 10.7376 2.87952 13.1672C2.87015 13.1766 2.86077 13.1867 2.8514 13.1961C2.84983 13.1977 2.84749 13.2 2.84593 13.2016C-2.02126 18.1256 -0.477511 28.0416 6.19358 34.7145C12.9483 41.471 22.8748 42.8917 27.7358 38.0295C27.742 38.0232 27.7475 38.017 27.7537 38.0115C27.7569 38.0084 27.76 38.0052 27.7631 38.0021C30.1725 35.5733 31.1631 32.0474 30.5701 28.0439C31.7084 27.25 32.7912 26.3435 33.7959 25.3385C40.5616 18.571 42.0756 9.11688 36.9381 3.97797V3.97875ZM23.5373 15.6421C21.067 13.4056 18.2444 11.7715 15.353 10.8955C15.9241 10.1523 16.5498 9.43884 17.2241 8.76444C22.4358 3.55129 29.2951 1.90162 33.6631 4.40309L33.61 4.42106M25.5553 36.8409C21.4155 40.1629 13.367 38.5757 7.85061 33.0578C2.93811 28.1432 0.990457 20.9936 3.32249 16.5001M5.06468 14.3464C9.36702 10.8072 17.1631 12.5381 22.7639 18.1404C25.4748 20.8521 27.5842 24.3695 28.2123 28.1361C28.6319 30.6564 28.3155 32.9265 27.3201 34.7215M35.7608 6.16451C39.2873 10.4235 37.7842 18.0342 32.1389 23.6818C31.4639 24.357 30.7514 24.9829 30.0084 25.5534C29.1616 22.7573 27.6069 20.0261 25.485 17.6161" fill="white"/>
</svg>
