<svg width="60" height="40" viewBox="0 0 40 40" fill="none" xmlns="http://www.w3.org/2000/svg">
<g clip-path="url(#clip0_335_7658)">
<path d="M39.4376 8.34479C35.9883 7.24379 32.3483 6.87162 28.7481 7.25202C24.7954 7.67609 21.7414 9.08913 19.9154 11.3386C17.8207 13.9916 17.4203 17.606 18.884 20.6533C19.0388 20.9638 19.2144 21.2638 19.409 21.5511C18.7388 23.0398 18.2052 24.5864 17.815 26.1719C17.5545 25.8542 17.271 25.5273 16.9643 25.1953C17.0054 25.1032 17.0453 25.0102 17.082 24.9155C18.0223 22.4952 17.4362 19.6194 15.6237 17.7601C14.0572 16.1525 11.6118 15.2768 8.55155 15.2271C5.78559 15.1872 3.04147 15.7224 0.493561 16.799C0.210319 16.9193 0.0194871 17.1895 0.00144824 17.4965C-0.0169071 17.8035 0.140379 18.0946 0.407164 18.2475C1.95281 19.1453 3.14717 20.5419 3.79467 22.2081C3.96367 22.6509 4.095 23.1142 4.23425 23.6044C4.33837 23.9709 4.44597 24.35 4.57161 24.7234C4.76371 25.332 5.03587 25.9127 5.38051 26.4501C6.53468 28.1932 8.443 29.1813 10.5861 29.1813C12.7027 29.18 14.7107 28.2454 16.0747 26.627C16.5276 27.1397 16.919 27.6337 17.2536 28.0942C19.1537 30.7098 19.7119 32.8514 19.7173 32.8729L21.2892 32.4792C21.267 32.3903 20.7673 30.4402 19.1002 27.916C19.4182 26.2058 19.9141 24.5339 20.5794 22.9268C22.1718 24.431 24.3697 25.345 26.7043 25.3836C26.7562 25.3845 26.8075 25.3849 26.8591 25.3849C29.9494 25.3849 32.6147 23.8525 34.0091 21.2641C34.3576 20.6185 34.6221 19.8852 34.8433 18.957C34.9623 18.4564 35.0582 17.9475 35.151 17.4554C35.2766 16.7873 35.3953 16.1566 35.5677 15.5426C36.2371 13.2137 37.678 11.1816 39.6547 9.77967C39.9066 9.6034 40.0369 9.29927 39.9907 8.99482C39.9445 8.69069 39.7303 8.43878 39.4372 8.34479H39.4376ZM15.7044 23.9338C13.6774 22.0562 10.8798 20.1343 7.08439 18.7127L6.51569 20.2305C10.3102 21.6515 13.0321 23.5955 14.9452 25.4466C14.0863 26.5837 12.7131 27.3641 11.1783 27.5293C9.31583 27.7299 7.69455 27.0109 6.73152 25.5558C6.46537 25.1355 6.25587 24.682 6.10776 24.207C5.99446 23.8702 5.89699 23.5265 5.7935 23.1623C5.65077 22.66 5.5033 22.1398 5.30867 21.6302C4.73206 20.1242 3.77758 18.7918 2.53702 17.7614C4.46876 17.1265 6.4929 16.818 8.52592 16.8477C10.3551 16.8772 12.8698 17.256 14.4639 18.8912C15.7225 20.1824 16.2048 22.2024 15.7044 23.9338ZM34.0082 15.104C33.8164 15.7866 33.6854 16.4828 33.5588 17.156C33.4657 17.6509 33.3778 18.1187 33.267 18.5817C33.0796 19.3691 32.8619 19.977 32.5828 20.4954C31.4577 22.5835 29.2706 23.8025 26.7312 23.7633C24.6004 23.7281 22.6146 22.818 21.3 21.3495C21.3038 21.3419 21.3072 21.3347 21.311 21.3274C22.3788 19.2111 23.701 17.4272 25.2403 16.0249C27.1281 14.2967 29.4456 13.108 31.9505 12.583L31.6109 10.9987C28.8253 11.5829 26.2483 12.9051 24.1491 14.8271C22.6589 16.1847 21.3601 17.8598 20.2793 19.814C19.1609 17.4424 19.5204 14.3964 21.1737 12.3595C23.1323 9.94645 26.4676 9.12616 28.9209 8.86285C29.7722 8.77203 30.6279 8.72646 31.484 8.72677C33.5012 8.72709 35.5108 8.9752 37.4672 9.46605C35.8155 10.9899 34.6183 12.9412 34.0082 15.104Z" fill="white"/>
</g>
<defs>
<clipPath id="clip0_335_7658">
<rect width="40" height="40" fill="white"/>
</clipPath>
</defs>
</svg>
