<svg width="60" height="40" viewBox="0 0 40 40" fill="none" xmlns="http://www.w3.org/2000/svg">
<mask id="mask0_335_7899" style="mask-type:luminance" maskUnits="userSpaceOnUse" x="0" y="-1" width="41" height="41">
<path d="M0.00195312 -0.000728607H40.0019V39.9993H0.00195312V-0.000728607Z" fill="white"/>
</mask>
<g mask="url(#mask0_335_7899)">
<path d="M16.4863 38.8271C22.9584 38.8271 28.2051 33.5805 28.2051 27.1084C28.2051 24.3395 27.2448 21.7168 25.639 19.7113L16.4863 8.28028L7.33367 19.7113C5.72789 21.7168 4.76758 24.3395 4.76758 27.1084C4.76758 33.5805 10.0142 38.8271 16.4863 38.8271Z" stroke="white" stroke-width="2.34375" stroke-miterlimit="10"/>
<path d="M16.4863 34.1396C12.6091 34.1396 9.45508 30.9857 9.45508 27.1084" stroke="white" stroke-width="2.34375" stroke-miterlimit="10"/>
<path d="M30.5488 14.1396C27.9636 14.1396 25.8613 12.0374 25.8613 9.45215C25.8613 8.37527 26.2149 7.36363 26.8845 6.52816L30.5488 1.88918L34.2132 6.52816C34.8827 7.36363 35.2363 8.37527 35.2363 9.45215C35.2363 12.0374 33.1341 14.1396 30.5488 14.1396Z" stroke="white" stroke-width="2.34375" stroke-miterlimit="10"/>
</g>
</svg>
