<svg width="60" height="40" viewBox="0 0 40 40" fill="none" xmlns="http://www.w3.org/2000/svg">
<path d="M33.693 5.68186L32.0877 5.04054C31.6072 4.85109 31.1039 4.83483 30.6376 4.95351C30.3725 4.53461 29.9901 4.20538 29.5215 4.01856L27.9163 3.37812C27.0028 3.01241 25.9941 3.2634 25.3453 3.92757C25.1897 3.81461 25.0244 3.71307 24.838 3.63834L23.2327 2.9979C22.0213 2.51571 20.6428 3.10999 20.1607 4.31966L19.576 5.78559L5.85252 0.313947C5.17559 0.0427377 4.43318 0.055485 3.76416 0.34076C3.09252 0.628672 2.57603 1.16054 2.3057 1.83746L1.65691 3.46164C1.10131 4.86076 1.78614 6.45197 3.18351 7.00889L16.9066 12.4797L16.3224 13.9465C16.0886 14.5333 16.0965 15.1755 16.3461 15.7566C16.525 16.1728 16.8152 16.517 17.1796 16.7658C16.7141 17.6489 16.5747 18.6063 16.8253 19.5307C17.2275 21.0076 18.5277 22.1069 20.1378 22.3311C20.5677 22.3913 21.0288 22.4247 21.4956 22.4568C23.7479 22.6142 24.4596 22.8326 24.5308 23.8986C24.5686 24.4687 24.6288 25.0203 24.6868 25.557C24.8877 27.4124 25.0459 28.8775 24.2486 30.3227C23.2666 32.0999 22.2881 35.5623 23.6178 37.8172C24.1721 38.7566 25.3628 39.8757 27.8477 39.8757C27.8635 39.8827 27.9127 39.8775 27.9272 39.8775C29.5396 39.8775 32.3259 38.8137 32.5391 34.8243C32.5409 34.7992 32.5417 34.7742 32.5409 34.7491C32.5382 34.6379 32.4569 32.0155 30.696 29.9333C29.8112 28.8871 30.3971 27.5443 30.6903 27.0164C31.0965 26.2867 32.1875 25.8379 33.3426 25.3645C34.7206 24.7997 36.2815 24.1592 37.118 22.7913C38.5338 20.4748 37.8002 18.3227 36.4776 17.2071L38.6727 11.7016C38.907 11.1148 38.8982 10.4726 38.6486 9.89153C38.3985 9.31087 37.9387 8.86252 37.3519 8.62823L35.7479 7.98867C35.5611 7.91395 35.3712 7.87219 35.1787 7.84713C35.165 6.92054 34.6059 6.04625 33.693 5.68186ZM31.3589 6.86823L32.9628 7.50867C33.1672 7.59087 33.2675 7.82384 33.187 8.02735L29.827 16.4511C29.3686 16.5702 28.9228 16.7091 28.5163 16.8863C27.9892 17.1157 26.8771 17.2322 26.8028 17.2216L30.8424 7.09285C30.9233 6.88889 31.1554 6.78647 31.3589 6.86823ZM27.1883 5.20581L28.7932 5.84713C28.9268 5.89944 28.987 6.00186 29.0112 6.05768C29.0354 6.11439 29.067 6.22867 29.0147 6.36186C29.0138 6.36274 29.0138 6.36274 29.0138 6.3645L25.1752 15.9935C24.6336 15.5702 23.8617 15.0507 22.9791 14.6898L26.671 5.42735C26.7514 5.22559 26.9804 5.12406 27.1883 5.20581ZM21.987 5.04845C22.0688 4.84406 22.3009 4.74516 22.5044 4.82647L24.1092 5.46691C24.3136 5.54779 24.413 5.77988 24.3316 5.98252L21.0336 14.2572C21.0094 14.2572 19.5483 14.3509 18.1532 14.9803C18.0974 15.0054 21.987 5.04845 21.987 5.04845ZM3.91186 5.18208C3.52021 5.02559 3.33032 4.58076 3.48504 4.19043L4.1334 2.56625C4.209 2.37768 4.35318 2.22911 4.53999 2.14911C4.72856 2.06823 4.93471 2.06735 5.12416 2.1412L18.8472 7.61285L17.6354 10.6528L3.91186 5.18208ZM35.4406 21.7645C34.9409 22.583 33.8024 23.0502 32.5971 23.5438C31.1782 24.1263 29.711 24.728 28.9708 26.0616C28.587 26.7531 27.4705 29.1663 29.1949 31.2045C30.4103 32.6414 30.558 34.5091 30.5734 34.7654C30.3971 37.6827 28.5048 37.91 27.9277 37.91H27.8894C26.5888 37.91 25.7457 37.5526 25.3127 36.8181C24.4657 35.3825 25.2046 32.6616 25.9712 31.2753C27.0705 29.2849 26.8626 27.3711 26.642 25.3456C26.587 24.8357 26.5299 24.3109 26.4938 23.7685C26.2982 20.8208 23.4908 20.6243 21.6327 20.4955C21.2121 20.466 20.7958 20.4375 20.4094 20.3843C19.5809 20.2682 18.9189 19.7302 18.7246 19.0155C18.5075 18.2177 18.9167 17.3381 19.8472 16.6023C20.1725 16.346 20.5369 16.2208 20.9628 16.2208C22.325 16.2208 23.9435 17.4748 24.5316 18.0291C25.4486 19.2849 27.3431 19.5438 29.3031 18.6898C30.2121 18.2929 31.3923 18.0656 32.54 18.0656C33.6538 18.0656 34.6411 18.2854 35.118 18.6375C35.3756 18.826 36.6002 19.8682 35.4406 21.7645ZM36.6235 10.4555C36.827 10.5364 36.9268 10.7693 36.8459 10.9728L34.7017 16.3504C33.8938 16.146 33.0806 16.0981 32.5404 16.0981C32.3853 16.0981 32.2314 16.1139 32.0767 16.1201L34.5035 10.037C34.5844 9.83439 34.813 9.73461 35.0191 9.81549L36.6235 10.4555Z" fill="white"/>
</svg>
