<svg width="60" height="40" viewBox="0 0 40 40" fill="none" xmlns="http://www.w3.org/2000/svg">
<path d="M9.99967 40C6.32301 40 3.33301 37.01 3.33301 33.3333C3.33301 31.5533 4.02634 29.8783 5.28467 28.6183L23.618 10.285C23.943 9.96001 24.4713 9.96001 24.7963 10.285C25.1213 10.61 25.1213 11.1383 24.7963 11.4633L6.46301 29.7967C5.51967 30.7417 4.99967 31.9983 4.99967 33.3333C4.99967 36.09 7.24301 38.3333 9.99967 38.3333C11.3347 38.3333 12.5913 37.8133 13.5363 36.87L31.8697 18.5367C32.1947 18.2117 32.723 18.2117 33.048 18.5367C33.373 18.8617 33.373 19.39 33.048 19.715L14.7147 38.0483C13.4547 39.3067 11.7797 40 9.99967 40Z" fill="white"/>
<path d="M34.1664 21.6666C33.9531 21.6666 33.7398 21.5849 33.5764 21.4232L21.9098 9.75656C21.5848 9.43156 21.5848 8.90322 21.9098 8.57822C22.2348 8.25322 22.7631 8.25322 23.0881 8.57822L34.7548 20.2449C35.0798 20.5699 35.0798 21.0982 34.7548 21.4232C34.5931 21.5849 34.3798 21.6666 34.1664 21.6666Z" fill="white"/>
<path d="M33.3333 13.3334C31.495 13.3334 30 11.8384 30 10.0001C30 8.16175 31.495 6.66675 33.3333 6.66675C35.1717 6.66675 36.6667 8.16175 36.6667 10.0001C36.6667 11.8384 35.1717 13.3334 33.3333 13.3334ZM33.3333 8.33341C32.415 8.33341 31.6667 9.08175 31.6667 10.0001C31.6667 10.9184 32.415 11.6667 33.3333 11.6667C34.2517 11.6667 35 10.9184 35 10.0001C35 9.08175 34.2517 8.33341 33.3333 8.33341Z" fill="white"/>
<path d="M27.5 5C26.1217 5 25 3.87833 25 2.5C25 1.12167 26.1217 0 27.5 0C28.8783 0 30 1.12167 30 2.5C30 3.87833 28.8783 5 27.5 5ZM27.5 1.66667C27.04 1.66667 26.6667 2.04 26.6667 2.5C26.6667 2.96 27.04 3.33333 27.5 3.33333C27.96 3.33333 28.3333 2.96 28.3333 2.5C28.3333 2.04 27.96 1.66667 27.5 1.66667Z" fill="white"/>
<path d="M9.99967 35.0001C9.08134 35.0001 8.33301 34.2517 8.33301 33.3334C8.33301 32.4151 9.08134 31.6667 9.99967 31.6667C10.918 31.6667 11.6663 32.4151 11.6663 33.3334C11.6663 34.2517 10.918 35.0001 9.99967 35.0001Z" fill="white"/>
<path d="M14.9997 31.6666C14.0813 31.6666 13.333 30.9183 13.333 29.9999C13.333 29.0816 14.0813 28.3333 14.9997 28.3333C15.918 28.3333 16.6663 29.0816 16.6663 29.9999C16.6663 30.9183 15.918 31.6666 14.9997 31.6666Z" fill="white"/>
<path d="M20.8336 19.9999C20.6202 19.9999 20.4069 19.9183 20.2436 19.7566L17.7936 17.3066C17.4686 16.9816 17.4686 16.4533 17.7936 16.1283C18.1186 15.8033 18.6469 15.8033 18.9719 16.1283L21.4219 18.5783C21.7469 18.9033 21.7469 19.4316 21.4219 19.7566C21.2602 19.9183 21.0469 19.9999 20.8336 19.9999Z" fill="white"/>
<path d="M23.7488 26.6634C22.9655 26.6634 22.1821 26.475 21.4971 26.0984L20.1905 25.36C19.3305 24.885 18.1688 24.8867 17.3038 25.3634L16.0105 26.0934C14.6355 26.8517 12.8671 26.8517 11.4988 26.0967L10.1071 25.3084C9.70712 25.0817 9.56545 24.5734 9.79379 24.1717C10.0205 23.7734 10.5271 23.63 10.9305 23.8584L12.3138 24.6417C13.1688 25.1134 14.3321 25.115 15.1988 24.6367L16.4921 23.9067C17.8671 23.1484 19.6338 23.1467 21.0038 23.9034L22.3105 24.6417C23.1688 25.1167 24.3305 25.1134 25.1971 24.6384L26.5588 23.875C26.9571 23.65 27.4671 23.7934 27.6938 24.1934C27.9205 24.5934 27.7754 25.1017 27.3755 25.3284L26.0088 26.095C25.3205 26.4734 24.5338 26.6634 23.7488 26.6634Z" fill="white"/>
</svg>
