<svg width="60" height="40" viewBox="0 0 40 40" fill="none" xmlns="http://www.w3.org/2000/svg">
<g clip-path="url(#clip0_488_2329)">
<path d="M17.5519 34.0465C16.2567 34.6883 14.8567 35.0418 13.3995 35.0418C6.52334 35.0418 0.942383 27.2278 0.942383 17.5813C0.942383 7.93483 6.53286 0.930176 13.409 0.930176C19.771 0.930176 25.0281 6.93018 25.771 15.4604" stroke="white" stroke-width="2" stroke-linecap="round"/>
<path d="M13.4092 0.930176V35.0325" stroke="white" stroke-width="2"/>
<path d="M39.3903 38.0587L39.3857 38.0676C39.5152 38.2347 39.5858 38.4403 39.5839 38.6531C39.5816 38.9043 39.4784 39.1439 39.2976 39.3204C39.117 39.4969 38.8734 39.5963 38.6195 39.5985C38.3656 39.6007 38.1203 39.5054 37.9366 39.3322L37.9346 39.3303L37.9346 39.3303L31.9172 33.4522C31.8784 33.4243 31.8345 33.3883 31.7925 33.3538C31.7711 33.3364 31.7503 33.3193 31.7309 33.3039C31.6628 33.2498 31.5944 33.2009 31.5226 33.1659C31.4518 33.1314 31.3816 33.1123 31.3089 33.1144C31.2376 33.1163 31.1532 33.1389 31.0533 33.2042C29.5289 34.2464 27.722 34.8221 25.8623 34.8584L25.8592 34.8585C24.1052 34.8585 22.3902 34.3504 20.9311 33.3982C19.4721 32.446 18.3343 31.0921 17.6622 29.5074C16.9902 27.9227 16.8143 26.1787 17.157 24.4961C17.4996 22.8135 18.3453 21.2685 19.5865 20.0562C20.8276 18.844 22.4084 18.0188 24.1289 17.6845C25.8494 17.3503 27.6327 17.5218 29.2536 18.1776C30.8745 18.8333 32.2605 19.9441 33.2359 21.37C34.2113 22.7958 34.7321 24.4726 34.7322 26.1881C34.7322 26.1882 34.7322 26.1882 34.7322 26.1883H34.5759C34.5774 28.0141 33.9705 29.7908 32.8468 31.2499L39.3903 38.0587ZM39.3903 38.0587L39.3089 37.9783C37.7754 36.4633 36.5898 35.321 35.6794 34.4492C35.4782 34.2565 35.2906 34.0772 35.1158 33.91C34.4986 33.32 34.0403 32.8819 33.7045 32.5454C33.2686 32.1085 33.0578 31.8603 32.9707 31.6865C32.9301 31.6056 32.9214 31.5498 32.9246 31.5035C32.9279 31.4567 32.9444 31.4054 32.9799 31.3331L39.3903 38.0587ZM18.9316 26.1882C18.9316 24.8516 19.3374 23.5447 20.098 22.4327C20.8588 21.3207 21.9404 20.4534 23.2066 19.9412C24.4728 19.4289 25.8663 19.2948 27.2107 19.556C28.5552 19.8172 29.7896 20.4618 30.7581 21.4079C31.7267 22.3538 32.3858 23.5586 32.6528 24.8697C32.9198 26.1807 32.7828 27.5397 32.259 28.7749C31.7351 30.0102 30.8478 31.0665 29.7085 31.81C28.5693 32.5535 27.2296 32.9506 25.8588 32.9506C24.0211 32.9485 22.26 32.2345 20.9616 30.9663C19.6634 29.6983 18.9338 27.9798 18.9316 26.1882Z" fill="white" stroke="white" stroke-width="0.3125"/>
<path d="M24.8729 29.64C25.1118 29.6402 25.341 29.5473 25.5097 29.3818L30.0131 24.975C30.3693 24.6352 30.3765 24.0772 30.0293 23.7287C29.682 23.3802 29.1118 23.3731 28.7556 23.7129C28.7502 23.7181 28.7448 23.7234 28.7395 23.7287L24.8729 27.5121L23.258 25.9321C22.9018 25.5923 22.3316 25.5994 21.9843 25.9479C21.6433 26.2902 21.6433 26.8361 21.9843 27.1784L24.236 29.3818C24.4047 29.5473 24.6339 29.6402 24.8729 29.64Z" fill="white"/>
</g>
<defs>
<clipPath id="clip0_488_2329">
<rect width="40" height="40" fill="white"/>
</clipPath>
</defs>
</svg>
