<svg width="28" height="28" viewBox="0 0 28 28" fill="none" xmlns="http://www.w3.org/2000/svg">
<path fill-rule="evenodd" clip-rule="evenodd" d="M6.41699 16.3333C8.67216 16.3333 10.5003 18.0347 10.5003 20.1335C10.5003 22.2158 9.19707 24.6457 7.1637 25.5147C6.68969 25.7172 6.1443 25.7172 5.67029 25.5147C3.63692 24.6457 2.33366 22.2158 2.33366 20.1335C2.33366 18.0347 4.16183 16.3333 6.41699 16.3333ZM6.41699 21.5833C5.77266 21.5833 5.25033 21.0609 5.25033 20.4166C5.25033 19.7723 5.77266 19.2499 6.41699 19.2499C7.06133 19.2499 7.58366 19.7723 7.58366 20.4166C7.58366 21.0609 7.06133 21.5833 6.41699 21.5833Z" fill="#C67C4E"/>
<path fill-rule="evenodd" clip-rule="evenodd" d="M21.5837 2.33325C23.8388 2.33325 25.667 4.03466 25.667 6.13346C25.667 8.2158 24.3637 10.6457 22.3304 11.5147C21.8564 11.7172 21.311 11.7172 20.837 11.5147C18.8036 10.6457 17.5003 8.2158 17.5003 6.13346C17.5003 4.03466 19.3285 2.33325 21.5837 2.33325ZM21.5837 7.58325C20.9393 7.58325 20.417 7.06092 20.417 6.41658C20.417 5.77225 20.9393 5.24992 21.5837 5.24992C22.228 5.24992 22.7503 5.77225 22.7503 6.41658C22.7503 7.06092 22.228 7.58325 21.5837 7.58325Z" fill="#C67C4E"/>
<path fill-rule="evenodd" clip-rule="evenodd" d="M14.8746 5.83325C14.8746 5.35 14.4828 4.95825 13.9996 4.95825L9.17903 4.95825C5.96926 4.95825 4.74859 9.15009 7.45655 10.8733L19.603 18.6029C20.8339 19.3862 20.2791 21.2916 18.8201 21.2916H16.112L16.3683 21.0353C16.71 20.6936 16.71 20.1396 16.3683 19.7979C16.0266 19.4562 15.4725 19.4562 15.1308 19.7979L13.3808 21.5479C13.0391 21.8896 13.0391 22.4436 13.3808 22.7853L15.1308 24.5353C15.4725 24.877 16.0266 24.877 16.3683 24.5353C16.71 24.1936 16.71 23.6396 16.3683 23.2979L16.112 23.0416H18.8201C22.0299 23.0416 23.2505 18.8497 20.5426 17.1265L8.39608 9.39692C7.16519 8.61363 7.72004 6.70825 9.17903 6.70825L13.9996 6.70825C14.4828 6.70825 14.8746 6.3165 14.8746 5.83325Z" fill="#C67C4E"/>
</svg>
