<svg width="28" height="28" viewBox="0 0 28 28" fill="none" xmlns="http://www.w3.org/2000/svg">
<path fill-rule="evenodd" clip-rule="evenodd" d="M13.9997 2.33325C9.5999 2.33325 7.40001 2.33325 6.03318 3.70009C4.7929 4.94036 4.67806 6.86656 4.66743 10.4999H3.49967C2.85534 10.4999 2.33301 11.0223 2.33301 11.6666V12.8333C2.33301 13.2005 2.5059 13.5463 2.79967 13.7666L4.66634 15.1666C4.67697 18.7999 4.7929 20.7261 6.03318 21.9664C6.31572 22.249 6.63386 22.4731 6.99967 22.6509V24.4998C6.99967 25.1441 7.52201 25.6665 8.16634 25.6665H9.91634C10.5607 25.6665 11.083 25.1441 11.083 24.4998V23.3117C11.9312 23.3333 12.8963 23.3333 13.9997 23.3333C15.1031 23.3333 16.0681 23.3333 16.9163 23.3117V24.4998C16.9163 25.1441 17.4387 25.6665 18.083 25.6665H19.833C20.4773 25.6665 20.9997 25.1441 20.9997 24.4998V22.6509C21.3655 22.4731 21.6836 22.249 21.9662 21.9664C23.2064 20.7261 23.3224 18.7999 23.333 15.1666L25.1997 13.7666C25.4934 13.5463 25.6663 13.2005 25.6663 12.8333V11.6666C25.6663 11.0223 25.144 10.4999 24.4997 10.4999H23.3319C23.3213 6.86656 23.2064 4.94036 21.9662 3.70009C20.5993 2.33325 18.3995 2.33325 13.9997 2.33325ZM6.41634 11.0833C6.41634 12.7332 6.41634 13.5581 6.9289 14.0707C7.44147 14.5833 8.26643 14.5833 9.91634 14.5833H13.9997H18.083C19.7329 14.5833 20.5579 14.5833 21.0704 14.0707C21.583 13.5581 21.583 12.7332 21.583 11.0833V8.16658C21.583 6.51667 21.583 5.69171 21.0704 5.17915C20.5579 4.66659 19.7329 4.66659 18.083 4.66659H13.9997H9.91634C8.26643 4.66659 7.44147 4.66659 6.9289 5.17915C6.41634 5.69171 6.41634 6.51667 6.41634 8.16658V11.0833ZM7.29134 18.6666C7.29134 18.1833 7.68309 17.7916 8.16634 17.7916H9.91634C10.3996 17.7916 10.7913 18.1833 10.7913 18.6666C10.7913 19.1498 10.3996 19.5416 9.91634 19.5416H8.16634C7.68309 19.5416 7.29134 19.1498 7.29134 18.6666ZM20.708 18.6666C20.708 18.1833 20.3163 17.7916 19.833 17.7916H18.083C17.5998 17.7916 17.208 18.1833 17.208 18.6666C17.208 19.1498 17.5998 19.5416 18.083 19.5416H19.833C20.3163 19.5416 20.708 19.1498 20.708 18.6666Z" fill="#C67C4E"/>
</svg>
