<svg width="48" height="49" viewBox="0 0 48 49" fill="none" xmlns="http://www.w3.org/2000/svg">
<g filter="url(#filter0_f_571_1237)">
<path d="M16.463 36.0014L16.9722 36.3031C19.1111 37.5725 21.5634 38.2439 24.0644 38.2451H24.0696C31.7498 38.2451 38.0003 31.996 38.0035 24.3153C38.0048 20.5933 36.5568 17.0933 33.926 14.4604C32.6357 13.162 31.1007 12.1324 29.4097 11.4312C27.7188 10.73 25.9056 10.3712 24.0751 10.3755C16.3889 10.3755 10.1382 16.6239 10.1355 24.3041C10.1317 26.9267 10.8702 29.4968 12.2657 31.7173L12.5972 32.2441L11.1893 37.384L16.463 36.0014ZM7.16406 41.366L9.54262 32.6816C8.0757 30.1401 7.30396 27.2569 7.30488 24.303C7.30875 15.0622 14.8288 7.54443 24.0698 7.54443C28.5542 7.54671 32.7633 9.29184 35.9289 12.4597C39.0944 15.6275 40.8361 19.8382 40.8345 24.3164C40.8304 33.5566 33.3092 41.0757 24.0696 41.0757H24.0623C21.2568 41.0746 18.5 40.3707 16.0512 39.0355L7.16406 41.366Z" fill="#B3B3B3"/>
</g>
<path d="M6.99219 41.1936L9.37074 32.5092C7.9013 29.9616 7.12945 27.0716 7.133 24.1306C7.13687 14.8898 14.6569 7.37207 23.8979 7.37207C28.3823 7.37435 32.5914 9.11947 35.757 12.2873C38.9226 15.4551 40.6643 19.6659 40.6627 24.1441C40.6586 33.3842 33.1374 40.9033 23.8977 40.9033H23.8904C21.0849 40.9022 18.3281 40.1984 15.8794 38.8631L6.99219 41.1936Z" fill="white"/>
<path d="M23.9035 10.2032C16.2173 10.2032 9.96662 16.4516 9.96388 24.1318C9.9601 26.7544 10.6986 29.3245 12.0941 31.545L12.4256 32.072L11.0177 37.2119L16.2916 35.8291L16.8008 36.1308C18.9397 37.4001 21.3921 38.0714 23.893 38.0727H23.8982C31.5784 38.0727 37.8291 31.8237 37.8321 24.143C37.8379 22.3123 37.4805 20.4987 36.7806 18.8071C36.0807 17.1155 35.0522 15.5795 33.7547 14.2881C32.4643 12.9896 30.9292 11.96 29.2383 11.2588C27.5473 10.5576 25.734 10.1988 23.9035 10.2032Z" fill="url(#paint0_linear_571_1237)"/>
<path fill-rule="evenodd" clip-rule="evenodd" d="M19.7077 17.1246C19.3937 16.4271 19.0633 16.413 18.765 16.4009L17.9621 16.3911C17.6827 16.3911 17.2288 16.4959 16.8451 16.9152C16.4614 17.3344 15.3789 18.3477 15.3789 20.4086C15.3789 22.4695 16.88 24.461 17.0892 24.7408C17.2983 25.0206 19.987 29.3846 24.2449 31.0637C27.7832 32.4591 28.5032 32.1815 29.2715 32.1118C30.0399 32.0421 31.7499 31.0985 32.0987 30.1204C32.4476 29.1422 32.4478 28.3042 32.3432 28.1289C32.2386 27.9537 31.9593 27.8496 31.54 27.64C31.1208 27.4303 29.0617 26.4171 28.6778 26.2772C28.2938 26.1373 28.0147 26.0678 27.7351 26.487C27.4556 26.9063 26.6537 27.8494 26.4093 28.1289C26.1648 28.4085 25.9207 28.4436 25.5015 28.2342C25.0822 28.0248 23.7334 27.5823 22.1329 26.1553C20.8877 25.045 20.0472 23.6737 19.8024 23.2547C19.5577 22.8357 19.7765 22.6088 19.9865 22.4C20.1745 22.2123 20.4053 21.9108 20.6152 21.6664C20.825 21.4219 20.8941 21.2471 21.0335 20.968C21.173 20.6889 21.1035 20.4437 20.9987 20.2343C20.8939 20.0249 20.08 17.953 19.7077 17.1246Z" fill="white"/>
<defs>
<filter id="filter0_f_571_1237" x="0.102063" y="0.482434" width="47.7949" height="47.9458" filterUnits="userSpaceOnUse" color-interpolation-filters="sRGB">
<feFlood flood-opacity="0" result="BackgroundImageFix"/>
<feBlend mode="normal" in="SourceGraphic" in2="BackgroundImageFix" result="shape"/>
<feGaussianBlur stdDeviation="3.531" result="effect1_foregroundBlur_571_1237"/>
</filter>
<linearGradient id="paint0_linear_571_1237" x1="23.6143" y1="11.8756" x2="23.7556" y2="35.6919" gradientUnits="userSpaceOnUse">
<stop stop-color="#57D163"/>
<stop offset="1" stop-color="#23B33A"/>
</linearGradient>
</defs>
</svg>
