<svg width="40" height="41" viewBox="0 0 40 41" fill="none" xmlns="http://www.w3.org/2000/svg">
<g clip-path="url(#clip0_576_2308)">
<path fill-rule="evenodd" clip-rule="evenodd" d="M18.2256 0.587891H21.7592C26.6122 0.587891 29.4482 1.30069 31.9658 2.65045C34.4833 4.0002 36.47 5.97176 37.8046 8.48932C39.1543 11.0068 39.8671 13.8428 39.8671 18.6959V22.2144C39.8671 27.0674 39.1543 29.9034 37.8046 32.4209C36.4548 34.9384 34.4833 36.9252 31.9658 38.2598C29.4482 39.6096 26.6122 40.3224 21.7592 40.3224H18.2407C13.3877 40.3224 10.5517 39.6096 8.03416 38.2598C5.51666 36.91 3.52994 34.9384 2.19536 32.4209C0.8456 29.9034 0.132812 27.0674 0.132812 22.2144V18.6959C0.132812 13.8428 0.8456 11.0068 2.19536 8.48932C3.54511 5.97176 5.51666 3.98504 8.03416 2.65045C10.5366 1.30069 13.3877 0.587891 18.2256 0.587891Z" fill="#0068FF"/>
<path opacity="0.12" fill-rule="evenodd" clip-rule="evenodd" d="M39.8669 21.6338V22.2144C39.8669 27.0675 39.1542 29.9035 37.8044 32.421C36.4546 34.9385 34.483 36.9252 31.9655 38.2599C29.448 39.6096 26.612 40.3224 21.759 40.3224H18.2406C14.2695 40.3224 11.649 39.8451 9.44832 38.9322L5.82031 35.1963L39.8669 21.6338Z" fill="#001A33"/>
<path fill-rule="evenodd" clip-rule="evenodd" d="M6.2232 35.3264C8.08152 35.5319 10.4049 35.002 12.0546 34.2011C19.218 38.1605 30.4158 37.9714 37.1938 33.6336C37.4567 33.2393 37.7023 32.8292 37.9302 32.4041C39.285 29.8774 40.0003 27.0311 40.0003 22.1604V18.6291C40.0003 13.7583 39.285 10.912 37.9302 8.38526C36.5908 5.85857 34.5969 3.87982 32.0702 2.52514C29.5434 1.17047 26.6971 0.455078 21.8264 0.455078H18.2799C14.1315 0.455078 11.4386 0.977281 9.17592 1.97422C9.05224 2.08497 8.93088 2.19762 8.81208 2.31216C2.17387 8.71132 1.66926 22.5825 7.29823 30.1176C7.30451 30.1288 7.31146 30.14 7.31911 30.1513C8.18672 31.4299 7.34955 33.6674 6.04054 34.9764C5.82745 35.1743 5.90355 35.296 6.2232 35.3264Z" fill="white"/>
<path d="M16.4503 14.0552H8.67033V15.7234H14.0693L8.74609 22.3205C8.57929 22.5632 8.45801 22.7907 8.45801 23.3063V23.7309H15.7982C16.1622 23.7309 16.4655 23.4277 16.4655 23.0637V22.1689H10.7935L15.7982 15.8902C15.874 15.7993 16.0105 15.6325 16.0712 15.5566L16.1015 15.5111C16.3897 15.0865 16.4503 14.7225 16.4503 14.2827V14.0552Z" fill="#0068FF"/>
<path d="M26.3531 23.7309H27.4602V14.0552H25.792V23.1698C25.792 23.4732 26.0346 23.7309 26.3531 23.7309Z" fill="#0068FF"/>
<path d="M20.6508 16.209C18.5579 16.209 16.8594 17.9075 16.8594 20.0004C16.8594 22.0933 18.5579 23.7919 20.6508 23.7919C22.7437 23.7919 24.4423 22.0933 24.4423 20.0004C24.4575 17.9075 22.7589 16.209 20.6508 16.209ZM20.6508 22.2298C19.4224 22.2298 18.4215 21.2288 18.4215 20.0004C18.4215 18.772 19.4224 17.7711 20.6508 17.7711C21.8792 17.7711 22.8802 18.772 22.8802 20.0004C22.8802 21.2288 21.8944 22.2298 20.6508 22.2298Z" fill="#0068FF"/>
<path d="M32.3891 16.1479C30.2811 16.1479 28.5674 17.8617 28.5674 19.9697C28.5674 22.0778 30.2811 23.7915 32.3891 23.7915C34.4971 23.7915 36.2109 22.0778 36.2109 19.9697C36.2109 17.8617 34.4971 16.1479 32.3891 16.1479ZM32.3891 22.2295C31.1455 22.2295 30.1446 21.2285 30.1446 19.9849C30.1446 18.7413 31.1455 17.7404 32.3891 17.7404C33.6327 17.7404 34.6337 18.7413 34.6337 19.9849C34.6337 21.2285 33.6327 22.2295 32.3891 22.2295Z" fill="#0068FF"/>
<path d="M23.5647 23.7308H24.4595V16.4209H22.8975V23.0787C22.8975 23.4275 23.2007 23.7308 23.5647 23.7308Z" fill="#0068FF"/>
</g>
<defs>
<clipPath id="clip0_576_2308">
<rect width="40" height="40" fill="white" transform="translate(0 0.455078)"/>
</clipPath>
</defs>
</svg>
