<svg id="Layer_1" enable-background="new 0 0 512.015 512.015" height="512" viewBox="0 0 512.015 512.015" width="512" xmlns="http://www.w3.org/2000/svg"><g><path d="m464.007 136.015h-150.52c21.68-17.6 41.97-42.41 41.97-73.64 0-50.681-58.068-79.676-99.45-51.13-41.388-28.55-99.45.455-99.45 51.13 0 31.23 20.29 56.04 41.97 73.64h-150.52c-8.84 0-16 7.16-16 16v80c0 8.84 7.16 16 16 16h416c8.84 0 16-7.16 16-16v-80c0-8.84-7.16-16-16-16zm-275.45-73.64c0-28.354 36.656-41.181 55.28-19.37 6.382 7.474 17.955 7.477 24.34 0 18.63-21.818 55.28-8.971 55.28 19.37 0 33.45-44.2 61.19-67.45 72.15-23.27-10.97-67.45-38.71-67.45-72.15zm126.45 153.64h-118c-2.761 0-5-2.239-5-5v-38c0-2.761 2.239-5 5-5h118c2.761 0 5 2.239 5 5v38c0 2.761-2.238 5-5 5z"/><path d="m53.007 280.015c-2.761 0-5 2.239-5 5v211c0 8.837 7.163 16 16 16h384c8.837 0 16-7.163 16-16v-211c0-2.761-2.239-5-5-5zm246 200h-86c-2.761 0-5-2.239-5-5v-158c0-2.761 2.239-5 5-5h86c2.761 0 5 2.239 5 5v158c0 2.761-2.238 5-5 5z"/></g></svg>