<?xml version="1.0" encoding="utf-8"?>
<!-- Generator: Adobe Illustrator 23.0.0, SVG Export Plug-In . SVG Version: 6.00 Build 0)  -->
<svg version="1.1" id="Layer_1" xmlns="http://www.w3.org/2000/svg" xmlns:xlink="http://www.w3.org/1999/xlink" x="0px" y="0px"
	 viewBox="0 0 512 485" style="enable-background:new 0 0 512 485;" xml:space="preserve">
<path d="M486.2,6H111.6C97.3,6,85.7,17.6,85.7,31.8v39.2H25.8C11.6,71.1,0,82.7,0,96.9v332.5c0,27.6,22.4,50.1,50,50.3h0.1
	c0.1,0,0.2,0,0.3,0h265.3c4.1,0,7.5-3.4,7.5-7.5c0-4.1-3.4-7.5-7.5-7.5H86.2c9-9.1,14.5-21.6,14.5-35.4V254.1c0-4.1-3.4-7.5-7.5-7.5
	c-4.1,0-7.5,3.4-7.5,7.5v175.4c0,19.4-15.8,35.2-35.2,35.4c-0.1,0-0.1,0-0.2,0c-19.5,0-35.4-15.9-35.4-35.3V96.9
	c0-6,4.9-10.8,10.8-10.8h59.9v140c0,4.1,3.4,7.5,7.5,7.5c4.1,0,7.5-3.4,7.5-7.5V31.8c0-6,4.9-10.8,10.8-10.8h374.6
	c6,0,10.8,4.9,10.8,10.8v397.6c0,19.5-15.9,35.4-35.4,35.4h-118c-4.1,0-7.5,3.4-7.5,7.5c0,4.1,3.4,7.5,7.5,7.5h118
	c27.8,0,50.4-22.6,50.4-50.4V31.8C512,17.6,500.4,6,486.2,6z"/>
<path d="M164.3,305.3h102.9c9.8,0,17.7-8,17.7-17.7V184.7c0-9.8-8-17.7-17.7-17.7H164.3c-9.8,0-17.7,8-17.7,17.7v102.9
	C146.6,297.3,154.5,305.3,164.3,305.3z M161.6,184.7c0-1.5,1.2-2.7,2.7-2.7h102.9c1.5,0,2.7,1.2,2.7,2.7v102.9
	c0,1.5-1.2,2.7-2.7,2.7H164.3c-1.5,0-2.7-1.2-2.7-2.7V184.7z"/>
<path d="M312.2,181.9h139.2c4.1,0,7.5-3.4,7.5-7.5s-3.4-7.5-7.5-7.5H312.2c-4.1,0-7.5,3.4-7.5,7.5S308.1,181.9,312.2,181.9z"/>
<path d="M312.2,243.6h139.2c4.1,0,7.5-3.4,7.5-7.5c0-4.1-3.4-7.5-7.5-7.5H312.2c-4.1,0-7.5,3.4-7.5,7.5
	C304.7,240.2,308.1,243.6,312.2,243.6z"/>
<path d="M312.2,305.3h139.2c4.1,0,7.5-3.4,7.5-7.5c0-4.1-3.4-7.5-7.5-7.5H312.2c-4.1,0-7.5,3.4-7.5,7.5
	C304.7,301.9,308.1,305.3,312.2,305.3z"/>
<path d="M154.1,366.9h297.3c4.1,0,7.5-3.4,7.5-7.5c0-4.1-3.4-7.5-7.5-7.5H154.1c-4.1,0-7.5,3.4-7.5,7.5
	C146.6,363.6,149.9,366.9,154.1,366.9z"/>
<path d="M154.1,428.6h297.3c4.1,0,7.5-3.4,7.5-7.5s-3.4-7.5-7.5-7.5H154.1c-4.1,0-7.5,3.4-7.5,7.5S149.9,428.6,154.1,428.6z"/>
<path d="M146.8,128.5V49.3c0-1.6,0.8-2.9,2.3-3.7c1.5-0.9,3.4-1.3,5.6-1.3c2.9,0,5.2,0.5,6.7,1.6c1.5,1.1,3.3,3.3,5.1,6.8l23.6,45.6
	V49.2c0-1.6,0.8-2.8,2.3-3.7c1.5-0.8,3.4-1.2,5.6-1.2s4.1,0.4,5.6,1.2c1.5,0.8,2.3,2,2.3,3.7v79.4c0,1.6-0.8,2.8-2.4,3.7
	c-1.6,0.9-3.4,1.3-5.6,1.3c-4.3,0-7.4-1.7-9.2-5l-26.3-49.1v49.1c0,1.6-0.8,2.8-2.4,3.7c-1.6,0.9-3.4,1.3-5.6,1.3
	c-2.2,0-4.1-0.4-5.6-1.3C147.5,131.3,146.8,130.1,146.8,128.5z"/>
<path d="M220.6,128.5V49.3c0-1.5,0.7-2.8,2.1-3.7c1.4-0.9,3-1.3,4.9-1.3h43.5c1.6,0,2.9,0.7,3.7,2.1c0.9,1.4,1.3,3,1.3,4.8
	c0,2-0.4,3.6-1.3,5c-0.9,1.4-2.1,2.1-3.7,2.1h-34.6v24.4h18.6c1.5,0,2.8,0.6,3.7,1.9c0.9,1.3,1.3,2.7,1.3,4.5c0,1.5-0.4,2.9-1.3,4.2
	c-0.9,1.3-2.1,1.9-3.7,1.9h-18.6v24.5h34.6c1.5,0,2.8,0.7,3.7,2.1c0.9,1.4,1.3,3.1,1.3,5c0,1.8-0.4,3.4-1.3,4.8
	c-0.9,1.4-2.1,2.1-3.7,2.1h-43.5c-1.9,0-3.5-0.4-4.9-1.3C221.3,131.3,220.6,130.1,220.6,128.5z"/>
<path d="M284,50.6c0-1.7,1.1-3.2,3.3-4.5c2.2-1.3,4.5-1.9,6.8-1.9c2.9,0,4.7,1.1,5.3,3.2l19.3,66.2l10.4-42.5
	c0.7-2.9,3.3-4.4,7.8-4.4c4.4,0,7,1.5,7.7,4.4l10.4,42.5l19.3-66.2c0.6-2.1,2.3-3.2,5.3-3.2c2.4,0,4.6,0.6,6.8,1.9s3.3,2.7,3.3,4.5
	c0,0.5-0.1,1-0.2,1.5l-24.2,76.8c-1.2,3.6-4.7,5.4-10.4,5.4c-2.4,0-4.6-0.5-6.6-1.4c-2-0.9-3.1-2.3-3.5-4l-7.8-33l-7.9,33
	c-0.4,1.7-1.6,3-3.5,4c-2,0.9-4.2,1.4-6.6,1.4c-2.5,0-4.8-0.5-6.7-1.4c-2-0.9-3.2-2.3-3.7-4l-24.2-76.8
	C284.1,51.6,284,51.1,284,50.6z"/>
<path d="M393.7,119.5c0-1.9,0.7-3.8,2.1-5.7c1.4-1.9,3-2.9,4.8-2.9c1.1,0,2.3,0.5,3.6,1.5c1.3,1,2.6,2.1,3.9,3.4
	c1.3,1.2,3.1,2.3,5.4,3.4c2.4,1,5,1.5,7.8,1.5c3.9,0,7.2-0.9,9.8-2.7c2.6-1.8,3.9-4.4,3.9-7.9c0-2.4-0.7-4.6-2.1-6.5
	c-1.4-1.9-3.3-3.5-5.6-4.8c-2.3-1.3-4.9-2.5-7.6-3.7c-2.8-1.2-5.6-2.5-8.4-4s-5.4-3.1-7.7-4.9s-4.2-4.3-5.6-7.3
	c-1.4-3.1-2.1-6.5-2.1-10.4c0-4.4,0.9-8.2,2.6-11.6c1.8-3.3,4.1-5.9,7-7.8s6.1-3.2,9.4-4.1c3.3-0.9,6.9-1.3,10.6-1.3
	c2.1,0,4.4,0.1,6.7,0.4c2.4,0.3,4.9,0.8,7.5,1.4c2.6,0.7,4.8,1.7,6.5,3.1c1.7,1.4,2.5,3.1,2.5,5c0,1.8-0.6,3.7-1.7,5.6
	c-1.1,1.9-2.7,2.9-4.6,2.9c-0.7,0-2.7-0.8-6-2.3c-3.3-1.5-6.9-2.3-10.9-2.3c-4.4,0-7.8,0.8-10.2,2.5c-2.4,1.7-3.6,4-3.6,6.9
	c0,2.4,1,4.4,2.9,6.2c2,1.8,4.4,3.2,7.3,4.3c2.9,1.1,6,2.5,9.4,4.2c3.4,1.7,6.5,3.5,9.4,5.4c2.9,2,5.3,4.8,7.3,8.5
	c2,3.7,2.9,8,2.9,13c0,8.3-2.7,14.8-8,19.3c-5.3,4.5-12.4,6.8-21.1,6.8c-7.7,0-14.4-1.6-19.9-4.8
	C396.4,126.7,393.7,123.2,393.7,119.5z"/>
</svg>
