<?xml version="1.0" encoding="utf-8"?>
<!-- Generator: Adobe Illustrator 23.0.0, SVG Export Plug-In . SVG Version: 6.00 Build 0)  -->
<svg version="1.1" id="Layer_1" xmlns="http://www.w3.org/2000/svg" xmlns:xlink="http://www.w3.org/1999/xlink" x="0px" y="0px"
	 viewBox="0 0 29 28.3" style="enable-background:new 0 0 29 28.3;" xml:space="preserve">
<style type="text/css">
	.st0{fill:#161616;}
</style>
<g id="Dark">
</g>
<g id="Light">
	<path id="Mac_Accessories_1_" class="st0" d="M14.5,0.3C4,0.3,0,8.5,0,16.3v8.2c0,0.5,0.3,0.8,0.8,0.8c0.4,0,0.7-0.3,0.7-0.8v-8.2
		c0-7.1,3.5-14.5,13-14.5 M14.5,1.8c9.5,0,13,7.4,13,14.5v8.2c0,0.4,0.3,0.8,0.7,0.8S29,25,29,24.5v-8.2c0-7.8-4-16-14.5-16
		 M5.5,15.3c1.7,0,3,1.3,3,3v7c0,1.7-1.3,3-3,3s-3-1.3-3-3v-7C2.5,16.6,3.8,15.3,5.5,15.3z M23.5,15.3c1.7,0,3,1.3,3,3v7
		c0,1.7-1.3,3-3,3s-3-1.3-3-3v-7C20.5,16.6,21.8,15.3,23.5,15.3z"/>
</g>
</svg>
