<svg width="101" height="89" viewBox="0 0 101 89" fill="none" xmlns="http://www.w3.org/2000/svg">
    <g clip-path="url(#clip0_99_22847)">
        <path d="M73.9066 82.8577C72.9059 78.7166 75.4351 74.5444 79.5557 73.5388C83.6764 72.5332 87.828 75.0749 88.8287 79.2159C89.8294 83.3569 87.3002 87.5291 83.1796 88.5347C79.0589 89.5404 74.9073 86.9987 73.9066 82.8577Z" fill="#D9261C"/>
        <path d="M81.3699 89.1317C82.9593 89.1317 84.5131 88.6581 85.8347 87.7706C87.1562 86.8832 88.1863 85.6219 88.7945 84.1462C89.4028 82.6705 89.5619 81.0466 89.2518 79.48C88.9417 77.9134 88.1764 76.4744 87.0525 75.345C85.9286 74.2155 84.4966 73.4463 82.9377 73.1347C81.3788 72.8231 79.763 72.983 78.2945 73.5943C76.8261 74.2055 75.571 75.2406 74.6879 76.5688C73.8049 77.8969 73.3335 79.4583 73.3335 81.0556C73.3358 83.1968 74.1832 85.2497 75.6898 86.7637C77.1965 88.2778 79.2392 89.1294 81.3699 89.1317ZM81.3699 73.6987C82.8177 73.6989 84.233 74.1306 85.4367 74.9391C86.6405 75.7477 87.5786 76.8967 88.1325 78.2411C88.6864 79.5854 88.8312 81.0646 88.5486 82.4916C88.266 83.9187 87.5686 85.2294 86.5448 86.2582C85.5209 87.2869 84.2165 87.9875 82.7964 88.2713C81.3764 88.555 79.9045 88.4093 78.5669 87.8524C77.2292 87.2955 76.086 86.3526 75.2816 85.1428C74.4773 83.933 74.0479 82.5106 74.0479 81.0556C74.0502 79.1049 74.8224 77.2348 76.1951 75.8555C77.5678 74.4763 79.4288 73.7006 81.3699 73.6987Z" fill="#4E2800"/>
        <path d="M4.61548 60.5826C3.32274 56.524 5.54865 52.1808 9.58719 50.8817C13.6257 49.5825 17.9476 51.8194 19.2403 55.878C20.5331 59.9365 18.3072 64.2797 14.2686 65.5789C10.2301 66.878 5.90823 64.6411 4.61548 60.5826Z" fill="#D9261C"/>
        <path d="M11.9319 66.2894C13.5216 66.2897 15.0757 65.8162 16.3977 64.9288C17.7196 64.0414 18.75 62.78 19.3585 61.304C19.9671 59.8281 20.1264 58.204 19.8164 56.6371C19.5064 55.0701 18.741 53.6308 17.617 52.501C16.493 51.3712 15.0608 50.6018 13.5016 50.2901C11.9424 49.9783 10.3263 50.1382 8.85755 50.7495C7.3888 51.3608 6.13344 52.3961 5.25021 53.7245C4.36697 55.0528 3.89554 56.6145 3.89554 58.2121C3.89781 60.3534 4.74518 62.4064 6.25176 63.9207C7.75835 65.435 9.8011 66.2868 11.9319 66.2894ZM11.9319 50.8552C13.3798 50.8552 14.7952 51.2866 15.9991 52.095C17.203 52.9034 18.1413 54.0524 18.6954 55.3967C19.2495 56.741 19.3944 58.2203 19.112 59.6474C18.8295 61.0745 18.1323 62.3854 17.1084 63.4143C16.0846 64.4431 14.7802 65.1438 13.3601 65.4277C11.94 65.7116 10.4681 65.5659 9.13036 65.009C7.79268 64.4522 6.64935 63.5093 5.84494 62.2994C5.04052 61.0896 4.61117 59.6672 4.61117 58.2121C4.61344 56.2616 5.38545 54.3917 6.75786 53.0125C8.13027 51.6333 9.99101 50.8574 11.9319 50.8552Z" fill="#4E2800"/>
        <path d="M57.3819 0.384915C61.8009 0.050621 59.5178 20.4919 59.5178 20.4919L34.9435 26.0701C34.9435 26.0701 52.963 0.71921 57.3819 0.384915Z" fill="#AD1F18"/>
        <path d="M34.8645 26.4451C34.9183 26.4568 34.9739 26.4568 35.0277 26.4451L59.6032 20.8669C59.6804 20.8493 59.7501 20.808 59.8029 20.7488C59.8557 20.6896 59.8888 20.6153 59.8978 20.5364C59.9739 19.8493 61.739 3.67977 58.7685 0.5786C58.5926 0.380078 58.3735 0.225039 58.1283 0.125547C57.883 0.0260561 57.6182 -0.0152044 57.3545 0.00499236C52.8864 0.341754 36.4872 23.2391 34.6337 25.8493C34.5968 25.901 34.5733 25.9611 34.5654 26.0242C34.5575 26.0872 34.5653 26.1513 34.5882 26.2106C34.6111 26.2699 34.6484 26.3225 34.6966 26.3636C34.7449 26.4048 34.8025 26.4332 34.8645 26.4463V26.4451ZM59.1687 20.1786L35.8379 25.4743C41.2302 17.9632 54.0587 1.02022 57.4109 0.767338C57.5628 0.756179 57.7152 0.781326 57.8556 0.840716C57.996 0.900106 58.1204 0.992054 58.2186 1.10904C60.4404 3.42319 59.6818 15.3998 59.1699 20.1799L59.1687 20.1786Z" fill="#4E2800"/>
        <path d="M49.2816 74.1347C50.5262 74.4036 51.3118 74.5393 51.4751 74.5664C51.5549 74.5862 51.7856 74.6417 52.149 74.7206C55.3957 75.4213 72.0342 78.536 83.2964 71.5689C83.3504 71.5837 83.4069 71.5973 83.4621 71.6096C86.0399 72.1672 88.976 69.573 90.0316 68.5257C91.053 68.9164 92.1016 69.2306 93.1691 69.4657C98.8671 70.6992 100.427 68.2198 100.851 66.6285C102.218 61.4969 93.8319 43.9989 92.7493 41.7711C89.0312 29.8055 78.713 20.6673 65.1309 17.3108C64.6791 17.1986 64.2188 17.0925 63.7634 16.9938L63.6738 16.9741C61.9446 16.604 60.1953 16.3363 58.4349 16.1722C43.6916 14.782 31.4302 21.1151 27.2114 32.3084C26.1189 35.1999 24.5514 37.2747 23.0379 39.2817L22.5469 39.9355C21.4238 41.4454 20.2626 43.0848 19.4782 45.0795C18.9557 46.398 18.6294 47.7867 18.5097 49.2008C18.4604 49.7338 18.4399 50.2691 18.4483 50.8044C18.4551 52.5208 18.7664 54.2222 19.3677 55.8287C23.7008 67.455 41.7288 72.5052 49.2791 74.1372L49.2816 74.1347Z" fill="#4E2800"/>
        <path d="M20.1872 45.3698C20.9237 43.5034 21.9929 41.9652 23.1541 40.4047C24.8283 38.1695 26.6732 35.9047 27.9265 32.5889C32.1834 21.308 44.5062 15.6361 58.3682 16.9437C60.1006 17.1045 61.822 17.3677 63.5236 17.7319C64.0023 17.8355 64.4802 17.9461 64.9573 18.0637C79.4416 21.641 88.757 31.4145 92.0455 42.0688C92.0455 42.0688 101.458 61.3962 100.114 66.4377C98.7696 71.4793 89.8409 67.6281 89.8409 67.6281C89.8409 67.6281 85.9265 71.8654 83.1965 70.7281C70.8591 78.6352 51.628 73.8119 51.628 73.8119C51.628 73.8119 25.2739 69.4834 20.0817 55.5553C19.511 54.0326 19.2159 52.4196 19.2101 50.7925C19.2028 50.2869 19.2221 49.7813 19.2678 49.2777C19.3816 47.9368 19.6914 46.62 20.1872 45.3698Z" fill="#E33729"/>
        <path d="M30.8939 63.8479C41.5951 70.5004 62.73 75.6604 65.957 64.0255C65.957 64.0255 69.6297 57.1262 64.2999 45.7256C59.433 35.3193 55.7223 27.126 49.3627 23.9866C48.7505 23.6824 48.1151 23.4279 47.4625 23.2255C39.9024 20.8818 31.844 30.1199 29.4578 34.4719C24.6706 43.2129 24.0274 46.5891 23.1792 49.0279C23.119 49.2055 23.0564 49.3794 22.9901 49.5484C22.0266 52.0563 20.1902 57.2002 30.8939 63.8479Z" fill="#AD1F18"/>
        <path d="M46.7498 23.0399C39.4021 21.4523 31.7684 30.2587 29.457 34.4738C24.6698 43.2148 24.0266 46.591 23.1784 49.0298C23.1183 49.2074 23.0557 49.3813 22.9894 49.5503C22.0258 52.0508 20.1895 57.1984 30.8932 63.8448C35.0813 66.4489 40.8702 68.8247 46.5559 70.0533C55.3938 71.9629 63.9862 71.1031 65.9502 64.0224C65.9502 64.0224 69.6228 57.1231 64.293 45.7226C59.4261 35.3163 55.7154 27.123 49.3558 23.9836C48.7436 23.6793 48.1082 23.4248 47.4556 23.2225C47.2187 23.1485 46.9818 23.0868 46.7437 23.035M46.9033 22.2862C47.1635 22.343 47.4249 22.4096 47.679 22.491C48.3698 22.7056 49.0425 22.9749 49.6909 23.2965C56.1376 26.4791 59.8876 34.4997 64.6355 44.6543L64.9817 45.3945C70.1678 56.4965 67.0856 63.4427 66.6621 64.3012C64.8037 70.8157 57.4204 73.1828 46.3877 70.8008C40.864 69.6055 34.9144 67.2482 30.4856 64.4949C19.124 57.4365 21.3298 51.7152 22.2713 49.2728C22.3314 49.1161 22.394 48.9496 22.4517 48.7794C22.5904 48.3797 22.7218 47.959 22.874 47.4718C23.6252 45.0701 24.7594 41.4422 28.7819 34.1C31.1976 29.6937 39.1149 20.6036 46.902 22.2862H46.9033Z" fill="#4E2800"/>
        <path d="M30.8939 63.8475C41.5951 70.5001 62.73 75.6601 65.957 64.0252C65.957 64.0252 69.6297 57.1259 64.2999 45.7253C59.433 35.319 55.7223 27.1257 49.3627 23.9863C49.3627 23.9863 39.1586 23.9506 34.2842 34.0312C32.8972 36.8968 31.925 38.9309 31.2425 40.3742C30.3741 42.174 29 43.6789 27.29 44.7027C26.1595 45.3923 24.7184 46.669 23.1792 49.0325C23.119 49.2101 23.0564 49.3841 22.9901 49.5531C22.0266 52.056 20.1902 57.1999 30.8939 63.8475Z" fill="white"/>
        <path d="M82.691 71.7992C82.7413 71.8104 82.7934 71.8111 82.8441 71.8014C82.8947 71.7916 82.9429 71.7716 82.9856 71.7425C91.6099 65.8658 90.9789 55.5693 90.9716 55.4595C90.9643 55.3583 90.9172 55.2641 90.8408 55.1977C90.7644 55.1313 90.6648 55.0981 90.5641 55.1055C90.4633 55.1129 90.3696 55.1601 90.3035 55.2369C90.2374 55.3137 90.2044 55.4138 90.2118 55.515C90.2191 55.6137 90.8108 65.4785 82.5572 71.1023C82.5157 71.1304 82.4801 71.1665 82.4526 71.2085C82.425 71.2506 82.406 71.2976 82.3967 71.347C82.3873 71.3965 82.3878 71.4473 82.398 71.4965C82.4083 71.5458 82.4282 71.5925 82.4565 71.634C82.5099 71.718 82.5942 71.7774 82.691 71.7992Z" fill="#4E2800"/>
        <path d="M88.8601 69.4225C88.9177 69.4348 88.9773 69.4337 89.0344 69.4192C89.0914 69.4046 89.1444 69.377 89.1891 69.3386C92.5033 66.4903 92.6359 62.3073 92.6396 62.1284C92.6407 62.0782 92.632 62.0283 92.6139 61.9814C92.5958 61.9346 92.5687 61.8918 92.5342 61.8555C92.4996 61.8192 92.4583 61.7901 92.4126 61.7698C92.3669 61.7495 92.3176 61.7385 92.2676 61.7374C92.2177 61.7363 92.1679 61.745 92.1213 61.7632C92.0748 61.7814 92.0322 61.8086 91.996 61.8433C91.9599 61.878 91.9309 61.9195 91.9108 61.9655C91.8906 62.0114 91.8796 62.061 91.8785 62.1112C91.8785 62.1506 91.7435 66.1363 88.687 68.7564C88.6331 68.8028 88.5931 68.8634 88.5716 68.9314C88.5501 68.9995 88.5479 69.0722 88.5653 69.1414C88.5826 69.2106 88.6188 69.2735 88.6698 69.3232C88.7208 69.3729 88.7846 69.4072 88.854 69.4225H88.8601Z" fill="#4E2800"/>
        <path d="M90.2055 54.1483C90.1888 54.2278 90.1959 54.3105 90.2258 54.386C90.2558 54.4615 90.3073 54.5264 90.3739 54.5725C90.4404 54.6186 90.5191 54.6439 90.5999 54.6453C90.6808 54.6466 90.7602 54.6239 90.8282 54.5799C90.8963 54.536 90.9498 54.4728 90.9822 54.3984C91.0146 54.3239 91.0244 54.2415 91.0103 54.1615C90.9962 54.0815 90.9589 54.0075 90.9031 53.9487C90.8472 53.89 90.7753 53.8491 90.6964 53.8313C90.6435 53.8194 90.5887 53.8181 90.5352 53.8276C90.4817 53.8371 90.4307 53.8572 90.385 53.8867C90.3393 53.9162 90.2999 53.9545 90.2691 53.9994C90.2383 54.0443 90.2167 54.0949 90.2055 54.1483Z" fill="#4E2800"/>
        <path d="M91.8334 60.8C91.8162 60.8798 91.8229 60.9629 91.8526 61.0389C91.8824 61.1149 91.9338 61.1803 92.0005 61.2269C92.0672 61.2735 92.1462 61.2992 92.2274 61.3008C92.3086 61.3023 92.3885 61.2797 92.4569 61.2357C92.5254 61.1917 92.5793 61.1283 92.6119 61.0535C92.6445 60.9787 92.6544 60.8959 92.6402 60.8155C92.626 60.7351 92.5884 60.6607 92.5322 60.6018C92.476 60.5428 92.4037 60.5019 92.3244 60.4842C92.2176 60.4607 92.1059 60.4808 92.0139 60.54C91.9218 60.5992 91.8569 60.6927 91.8334 60.8Z" fill="#4E2800"/>
        <path d="M90.3077 52.7756C90.2985 52.8183 90.3021 52.8627 90.3181 52.9034C90.334 52.944 90.3616 52.9789 90.3973 53.0038C90.433 53.0287 90.4752 53.0424 90.5187 53.0431C90.5621 53.0439 90.6048 53.0317 90.6413 53.0081C90.6779 52.9845 90.7066 52.9505 90.724 52.9104C90.7413 52.8704 90.7464 52.8261 90.7387 52.7831C90.731 52.7402 90.7107 52.7005 90.6806 52.669C90.6504 52.6376 90.6116 52.6159 90.5692 52.6066C90.541 52.6004 90.5118 52.5999 90.4834 52.6051C90.455 52.6102 90.4279 52.621 90.4036 52.6367C90.3793 52.6524 90.3584 52.6727 90.3419 52.6966C90.3255 52.7204 90.3138 52.7473 90.3077 52.7756Z" fill="#4E2800"/>
        <path d="M91.9325 59.6289C91.923 59.6719 91.9264 59.7167 91.9423 59.7577C91.9582 59.7987 91.9859 59.834 92.0218 59.8592C92.0577 59.8844 92.1003 59.8983 92.1441 59.8991C92.1878 59.8999 92.2309 59.8877 92.2677 59.8639C92.3046 59.8401 92.3335 59.8058 92.3509 59.7654C92.3683 59.725 92.3734 59.6803 92.3655 59.6371C92.3576 59.5938 92.3371 59.5538 92.3065 59.5223C92.276 59.4907 92.2368 59.469 92.194 59.4599C92.137 59.4478 92.0776 59.4587 92.0287 59.4904C91.9797 59.522 91.9452 59.5718 91.9325 59.6289Z" fill="#4E2800"/>
        <path d="M58.1982 64.5111C55.0024 63.8203 52.6498 62.1474 52.9437 60.7747C53.2375 59.402 56.0664 58.8492 59.2623 59.5401C62.4581 60.231 64.8106 61.9038 64.5168 63.2765C64.223 64.6492 61.394 65.202 58.1982 64.5111Z" fill="#FF9FCA"/>
        <path d="M26.4263 52.318C24.501 51.4646 23.3339 49.8759 23.8195 48.7695C24.305 47.6631 26.2595 47.4579 28.1848 48.3113C30.1101 49.1647 31.2772 50.7534 30.7917 51.8598C30.3061 52.9662 28.3516 53.1714 26.4263 52.318Z" fill="#FF9FCA"/>
        <path d="M30.266 53.0544C30.3158 53.0758 30.371 53.0807 30.4237 53.0684C30.4764 53.056 30.5238 53.0271 30.559 52.9858C30.5942 52.9445 30.6154 52.893 30.6194 52.8388C30.6235 52.7846 30.6102 52.7305 30.5815 52.6844L28.4764 49.4586C28.4385 49.4042 28.381 49.3667 28.3161 49.3542C28.2512 49.3417 28.184 49.355 28.1288 49.3915C28.0735 49.4279 28.0346 49.4845 28.0202 49.5493C28.0058 49.6142 28.0171 49.682 28.0517 49.7386L30.1568 52.9644C30.1841 53.0041 30.222 53.0353 30.266 53.0544Z" fill="#4E2800"/>
        <path d="M25.7808 51.0657C25.8198 51.0844 25.8631 51.0925 25.9062 51.089C25.9493 51.0855 25.9907 51.0707 26.0263 51.0459C26.0543 51.0276 26.0784 51.0039 26.0973 50.9761C26.1162 50.9484 26.1294 50.9172 26.1362 50.8843C26.1431 50.8514 26.1434 50.8175 26.1371 50.7845C26.1309 50.7515 26.1183 50.72 26.0999 50.6919L23.9948 47.4674C23.977 47.4383 23.9536 47.413 23.9259 47.3932C23.8982 47.3733 23.8668 47.3593 23.8336 47.3518C23.8005 47.3444 23.7661 47.3437 23.7327 47.3499C23.6992 47.356 23.6673 47.3688 23.6389 47.3876C23.6105 47.4063 23.5861 47.4306 23.5672 47.459C23.5482 47.4874 23.5352 47.5193 23.5288 47.5528C23.5224 47.5864 23.5227 47.6209 23.5298 47.6543C23.5369 47.6878 23.5506 47.7194 23.5701 47.7474L25.6752 50.9719C25.7005 51.0129 25.7372 51.0455 25.7808 51.0657Z" fill="#4E2800"/>
        <path d="M28.0239 52.0593C28.0736 52.0807 28.1288 52.0856 28.1815 52.0733C28.2342 52.0609 28.2816 52.032 28.3168 51.9907C28.352 51.9494 28.3732 51.8979 28.3772 51.8437C28.3813 51.7895 28.368 51.7353 28.3393 51.6892L26.2342 48.4635C26.1963 48.4091 26.1388 48.3716 26.0739 48.3591C26.009 48.3465 25.9418 48.3599 25.8866 48.3963C25.8313 48.4328 25.7924 48.4894 25.778 48.5542C25.7636 48.619 25.7749 48.6869 25.8095 48.7435L27.9146 51.9693C27.9414 52.0094 27.9794 52.0407 28.0239 52.0593Z" fill="#4E2800"/>
        <path d="M64.807 64.8244C64.8485 64.8335 64.8916 64.8319 64.9324 64.8198C64.9731 64.8078 65.0102 64.7856 65.0402 64.7553C65.0876 64.7072 65.1143 64.6423 65.1143 64.5746C65.1143 64.5069 65.0876 64.4419 65.0402 64.3938L62.3287 61.6627C62.3052 61.639 62.2772 61.6202 62.2465 61.6073C62.2157 61.5945 62.1828 61.5879 62.1494 61.5879C62.1161 61.5879 62.0832 61.5945 62.0524 61.6073C62.0217 61.6202 61.9937 61.639 61.9702 61.6627C61.9228 61.7108 61.8962 61.7758 61.8962 61.8435C61.8962 61.9112 61.9228 61.9761 61.9702 62.0242L64.6805 64.7553C64.7154 64.7897 64.7592 64.8136 64.807 64.8244Z" fill="#4E2800"/>
        <path d="M55.2232 62.753C55.2769 62.7647 55.3329 62.7586 55.3829 62.7357C55.4328 62.7127 55.474 62.6741 55.5003 62.6256C55.5266 62.5771 55.5365 62.5213 55.5286 62.4667C55.5207 62.412 55.4953 62.3614 55.4564 62.3225L52.7461 59.5914C52.7229 59.566 52.6949 59.5457 52.6637 59.5315C52.6325 59.5173 52.5988 59.5096 52.5646 59.5089C52.5304 59.5081 52.4963 59.5143 52.4645 59.5271C52.4328 59.5399 52.4039 59.559 52.3796 59.5833C52.3554 59.6076 52.3363 59.6365 52.3234 59.6684C52.3106 59.7003 52.3043 59.7345 52.3049 59.7689C52.3056 59.8033 52.3131 59.8372 52.3271 59.8686C52.3411 59.9 52.3613 59.9282 52.3864 59.9516L55.0967 62.6839C55.1313 62.7188 55.1753 62.7428 55.2232 62.753Z" fill="#4E2800"/>
        <path d="M57.6196 63.2703C57.6733 63.2826 57.7295 63.277 57.7797 63.2543C57.8299 63.2315 57.8714 63.1929 57.8978 63.1444C57.9242 63.0958 57.9341 63.0399 57.9259 62.9851C57.9178 62.9304 57.8921 62.8798 57.8528 62.841L55.1425 60.1099C55.1193 60.0846 55.0913 60.0642 55.0601 60.0501C55.0289 60.0359 54.9952 60.0282 54.961 60.0274C54.9268 60.0266 54.8927 60.0329 54.8609 60.0456C54.8292 60.0584 54.8003 60.0775 54.776 60.1018C54.7518 60.1261 54.7327 60.1551 54.7198 60.187C54.707 60.2189 54.7007 60.253 54.7013 60.2874C54.702 60.3218 54.7095 60.3558 54.7235 60.3872C54.7375 60.4186 54.7577 60.4468 54.7828 60.4701L57.4931 63.2012C57.5275 63.2364 57.5715 63.2605 57.6196 63.2703Z" fill="#4E2800"/>
        <path d="M60.0154 63.7879C60.0696 63.8 60.1263 63.7939 60.1767 63.7704C60.2271 63.747 60.2684 63.7075 60.2942 63.6581C60.3201 63.6087 60.329 63.5521 60.3196 63.4971C60.3103 63.4421 60.2832 63.3917 60.2425 63.3537L57.542 60.6275C57.5188 60.6022 57.4908 60.5818 57.4596 60.5676C57.4284 60.5534 57.3947 60.5457 57.3605 60.545C57.3263 60.5442 57.2922 60.5504 57.2604 60.5632C57.2287 60.576 57.1998 60.5951 57.1755 60.6194C57.1513 60.6437 57.1322 60.6726 57.1193 60.7045C57.1065 60.7364 57.1002 60.7706 57.1008 60.805C57.1015 60.8394 57.109 60.8733 57.123 60.9047C57.137 60.9361 57.1572 60.9643 57.1824 60.9877L59.889 63.7237C59.9242 63.7568 59.968 63.7791 60.0154 63.7879Z" fill="#4E2800"/>
        <path d="M62.4112 64.3068C62.4647 64.3181 62.5204 64.3118 62.57 64.2889C62.6196 64.2659 62.6605 64.2275 62.6867 64.1793C62.7129 64.1311 62.7229 64.0757 62.7153 64.0214C62.7077 63.967 62.6829 63.9166 62.6445 63.8775L59.9342 61.1452C59.8865 61.0972 59.8218 61.0703 59.7544 61.0703C59.6869 61.0703 59.6222 61.0972 59.5745 61.1452C59.5268 61.1931 59.5 61.2581 59.5 61.3259C59.5 61.3937 59.5268 61.4587 59.5745 61.5066L62.2848 64.2377C62.3194 64.2726 62.3633 64.2965 62.4112 64.3068Z" fill="#4E2800"/>
        <path d="M70.3079 23.0625C70.3079 23.0625 90.6338 7.49868 94.5262 9.62903C98.4185 11.7594 89.5254 42.5071 89.5254 42.5071" fill="#E33729"/>
        <path d="M89.4456 42.8771C89.5398 42.8975 89.6381 42.8812 89.7208 42.8315C89.8035 42.7818 89.8644 42.7025 89.8912 42.6094C89.9133 42.533 92.1375 34.8195 93.8572 26.9432C97.3923 10.7565 95.3719 9.65122 94.7078 9.28855C90.7123 7.10022 72.1749 21.1443 70.0734 22.7528C69.993 22.8144 69.9402 22.9054 69.9266 23.0061C69.913 23.1067 69.9398 23.2086 70.001 23.2894C70.0622 23.3703 70.1528 23.4233 70.253 23.437C70.3531 23.4506 70.4545 23.4237 70.5349 23.3622C78.6277 17.1661 91.6477 8.48551 94.3482 9.96085C95.0049 10.3198 96.198 12.6747 93.1207 26.7755C91.4022 34.6258 89.1927 42.3183 89.1669 42.3936C89.1388 42.4911 89.1503 42.5958 89.1988 42.6848C89.2474 42.7738 89.329 42.8399 89.4259 42.8685L89.4456 42.8771Z" fill="#4E2800"/>
        <path d="M55.9493 58.359C54.0379 57.7914 53.2662 54.6858 54.2257 51.4223C55.1851 48.1588 57.5124 45.9732 59.4239 46.5408C61.3353 47.1083 62.107 50.214 61.1475 53.4775C60.188 56.741 57.8607 58.9265 55.9493 58.359Z" fill="#4E2800"/>
        <path d="M31.9004 49.2414C30.606 48.8571 30.3345 45.9 31.2939 42.6364C32.2534 39.3729 34.0806 37.0389 35.375 37.4232C36.6694 37.8076 36.9409 40.7647 35.9815 44.0282C35.022 47.2918 33.1949 49.6258 31.9004 49.2414Z" fill="#4E2800"/>
        <path d="M34.8348 53.1731C34.9597 53.2171 35.0674 53.2993 35.1427 53.4081C35.2179 53.5168 35.2568 53.6465 35.2537 53.7786C35.2532 53.8262 36.7986 56.6968 38.8901 57.7294L38.9686 57.7661C39.0203 57.7891 39.0743 57.8108 39.1309 57.8301C41.0813 58.5255 43.0559 58.4582 44.2679 57.7762C44.346 57.732 44.4327 57.7051 44.5222 57.6972C44.6116 57.6894 44.7017 57.7009 44.7864 57.7309L44.855 57.7602C44.9573 57.8106 45.044 57.8879 45.1056 57.9838C45.1672 58.0796 45.2015 58.1904 45.2048 58.3042C45.208 58.418 45.1801 58.5305 45.124 58.6296C45.068 58.7287 44.9859 58.8106 44.8866 58.8665C44.6878 58.9792 41.5983 60.0311 38.7065 59.0085C38.6224 58.9781 38.5398 58.9462 38.4583 58.9097C35.5112 57.6079 33.9939 53.9689 33.9989 53.7479C34.0006 53.6652 34.0187 53.5836 34.0521 53.5079C34.0855 53.4322 34.1337 53.3639 34.1937 53.3068C34.2537 53.2497 34.3244 53.2051 34.4018 53.1755C34.4792 53.1458 34.5617 53.1318 34.6446 53.1341C34.7096 53.1376 34.7737 53.1507 34.8348 53.1731Z" fill="#4E2800"/>
    </g>
    <defs>
        <clipPath id="clip0_99_22847">
            <rect width="101" height="89" fill="white" transform="matrix(-1 0 0 1 101 0)"/>
        </clipPath>
    </defs>
</svg>
