<svg width="30" height="31" viewBox="0 0 30 31" fill="none" xmlns="http://www.w3.org/2000/svg">
<rect x="0.5" y="0.580078" width="29" height="29" rx="14.5" stroke="#98A2B3"/>
<path d="M14.6299 11.6855C16.3525 11.6855 17.7744 13.1074 17.7744 14.8301C17.7744 16.5801 16.3525 17.9746 14.6299 17.9746C12.8799 17.9746 11.4854 16.5801 11.4854 14.8301C11.4854 13.1074 12.8799 11.6855 14.6299 11.6855ZM14.6299 16.8809C15.751 16.8809 16.6533 15.9785 16.6533 14.8301C16.6533 13.709 15.751 12.8066 14.6299 12.8066C13.4814 12.8066 12.5791 13.709 12.5791 14.8301C12.5791 15.9785 13.5088 16.8809 14.6299 16.8809ZM18.6221 11.5762C18.6221 11.9863 18.2939 12.3145 17.8838 12.3145C17.4736 12.3145 17.1455 11.9863 17.1455 11.5762C17.1455 11.166 17.4736 10.8379 17.8838 10.8379C18.2939 10.8379 18.6221 11.166 18.6221 11.5762ZM20.7002 12.3145C20.7549 13.3262 20.7549 16.3613 20.7002 17.373C20.6455 18.3574 20.4268 19.2051 19.7158 19.9434C19.0049 20.6543 18.1299 20.873 17.1455 20.9277C16.1338 20.9824 13.0986 20.9824 12.0869 20.9277C11.1025 20.873 10.2549 20.6543 9.5166 19.9434C8.80566 19.2051 8.58691 18.3574 8.53223 17.373C8.47754 16.3613 8.47754 13.3262 8.53223 12.3145C8.58691 11.3301 8.80566 10.4551 9.5166 9.74414C10.2549 9.0332 11.1025 8.81445 12.0869 8.75977C13.0986 8.70508 16.1338 8.70508 17.1455 8.75977C18.1299 8.81445 19.0049 9.0332 19.7158 9.74414C20.4268 10.4551 20.6455 11.3301 20.7002 12.3145ZM19.3877 18.4395C19.7158 17.6465 19.6338 15.7324 19.6338 14.8301C19.6338 13.9551 19.7158 12.041 19.3877 11.2207C19.1689 10.7012 18.7588 10.2637 18.2393 10.0723C17.4189 9.74414 15.5049 9.82617 14.6299 9.82617C13.7275 9.82617 11.8135 9.74414 11.0205 10.0723C10.4736 10.291 10.0635 10.7012 9.84473 11.2207C9.5166 12.041 9.59863 13.9551 9.59863 14.8301C9.59863 15.7324 9.5166 17.6465 9.84473 18.4395C10.0635 18.9863 10.4736 19.3965 11.0205 19.6152C11.8135 19.9434 13.7275 19.8613 14.6299 19.8613C15.5049 19.8613 17.4189 19.9434 18.2393 19.6152C18.7588 19.3965 19.1963 18.9863 19.3877 18.4395Z" fill="#98A2B3"/>
</svg>
