<svg width="40" height="41" viewBox="0 0 40 41" fill="none" xmlns="http://www.w3.org/2000/svg">
<g clip-path="url(#clip0_1145_3850)">
<rect y="0.97998" width="40" height="40" rx="20" fill="#BE6642"/>
<g clip-path="url(#clip1_1145_3850)">
<path fill-rule="evenodd" clip-rule="evenodd" d="M17.798 10.8963L20.8809 12.095L11.6769 15.6739L8.45234 14.4201L17.5149 10.8963C17.6095 10.8594 17.7034 10.8594 17.798 10.8963ZM27.3979 21.19C29.9865 21.19 32.085 23.2886 32.085 25.8773C32.085 28.4659 29.9865 30.5645 27.3979 30.5645C24.8092 30.5645 22.7105 28.4659 22.7105 25.8773C22.7105 23.2886 24.8092 21.19 27.3979 21.19ZM29.1726 23.7398L26.396 26.5163L25.4485 25.3239C25.2155 25.0307 24.7888 24.982 24.4956 25.2151C24.2023 25.4481 24.1536 25.8748 24.3867 26.168L25.7812 27.9227C26.0223 28.2681 26.5188 28.3153 26.8192 28.0149L30.1334 24.7006C30.3988 24.4353 30.3988 24.0051 30.1334 23.7398C29.8681 23.4744 29.4379 23.4744 29.1726 23.7398ZM24.1729 13.3751C21.1049 14.5681 18.037 15.7611 14.9688 16.9539L17.6564 17.9989L26.8605 14.4201L24.1729 13.3751ZM27.3979 15.0466L18.0471 18.6825V29.5131L22.3 27.8595C22.0608 27.2449 21.9294 26.5765 21.9294 25.8773C21.9294 22.8571 24.3777 20.4089 27.3979 20.4089V15.0466ZM17.2658 29.5131V18.6825L14.4317 17.5806V19.8676C14.4317 19.9781 14.3025 20.0378 14.2185 19.9661L12.7143 18.6851L11.3076 19.1225C11.2239 19.1486 11.1397 19.0867 11.1397 18.999V16.3005L7.91504 15.0467V25.61C7.91504 25.7744 8.01099 25.9146 8.16426 25.9741L17.2658 29.5131Z" fill="white"/>
</g>
</g>
<defs>
<clipPath id="clip0_1145_3850">
<rect y="0.97998" width="40" height="40" rx="20" fill="white"/>
</clipPath>
<clipPath id="clip1_1145_3850">
<rect width="25" height="25" fill="white" transform="translate(7.5 8.2168)"/>
</clipPath>
</defs>
</svg>
